<svg xmlns="http://www.w3.org/2000/svg" viewBox="0 0 1200 630" width="1200" height="630" role="img" aria-label="HR software for people who hate HR software. — Pulse HR">
  <rect width="1200" height="630" fill="#0b0b0d"/>
  <g transform="translate(80.00 150) scale(0.05661538461538462 -0.05661538461538462)">
    <path fill="#f2f2ee" transform="translate(0 0)" d="M514 64Q511 52 517.5 42.0Q524 32 545 29L618 19Q628 18 632.0 15.5Q636 13 636 9Q636 5 632.0 2.5Q628 0 620 0H-28Q-34 0 -37.0 1.5Q-40 3 -40 7Q-40 11 -37.0 13.5Q-34 16 -27 17L52 28Q68 30 78.5 42.0Q89 54 96 76Q99 87 118.0 158.0Q137 229 167.0 339.0Q197 449 231.5 578.5Q266 708 300.5 837.0Q335 966 364.5 1074.5Q394 1183 412.0 1252.0Q430 1321 432 1328Q435 1348 428.0 1358.5Q421 1369 398 1372L324 1382Q316 1383 313.5 1385.5Q311 1388 311 1392Q311 1396 314.5 1398.0Q318 1400 325 1400H965Q972 1400 974.5 1398.0Q977 1396 977 1393Q977 1390 974.5 1387.0Q972 1384 964 1383L885 1372Q870 1370 861.0 1360.0Q852 1350 842 1324Q840 1318 821.5 1249.5Q803 1181 774.5 1072.5Q746 964 712.5 834.5Q679 705 645.0 574.5Q611 444 582.5 332.5Q554 221 535.5 148.5Q517 76 514 64ZM492 668H1206L1202 644H488ZM1288 64Q1285 52 1291.5 42.0Q1298 32 1319 29L1392 19Q1402 18 1406.0 15.5Q1410 13 1410 9Q1410 5 1406.0 2.5Q1402 0 1394 0H746Q740 0 737.0 1.5Q734 3 734 7Q734 11 737.0 13.5Q740 16 747 17L826 28Q842 30 852.5 42.0Q863 54 870 76Q873 87 892.0 158.0Q911 229 941.0 339.0Q971 449 1005.5 578.5Q1040 708 1074.5 837.0Q1109 966 1138.5 1074.5Q1168 1183 1186.0 1252.0Q1204 1321 1206 1328Q1209 1348 1202.0 1358.5Q1195 1369 1172 1372L1098 1382Q1090 1383 1087.5 1385.5Q1085 1388 1085 1392Q1085 1396 1088.5 1398.0Q1092 1400 1099 1400H1739Q1746 1400 1748.5 1398.0Q1751 1396 1751 1393Q1751 1390 1748.5 1387.0Q1746 1384 1738 1383L1659 1372Q1644 1370 1635.0 1360.0Q1626 1350 1616 1324Q1614 1318 1595.5 1249.5Q1577 1181 1548.5 1072.5Q1520 964 1486.5 834.5Q1453 705 1419.0 574.5Q1385 444 1356.5 332.5Q1328 221 1309.5 148.5Q1291 76 1288 64Z"/>
    <path fill="#f2f2ee" transform="translate(1592 0)" d="M550 606 556 627Q611 600 656.5 592.5Q702 585 738 585Q814 585 880.0 629.0Q946 673 996.0 768.0Q1046 863 1072 1015Q1095 1147 1082.0 1226.0Q1069 1305 1032.5 1340.5Q996 1376 947 1376Q904 1376 876.5 1354.5Q849 1333 834 1288Q830 1276 811.5 1206.5Q793 1137 765.0 1030.5Q737 924 704.0 799.5Q671 675 639.0 550.5Q607 426 579.5 320.0Q552 214 534.5 145.0Q517 76 514 64Q511 52 517.5 42.0Q524 32 545 29L618 19Q628 18 632.0 15.5Q636 13 636 9Q636 5 632.0 2.5Q628 0 620 0H-28Q-34 0 -37.0 1.5Q-40 3 -40 7Q-40 11 -37.0 13.5Q-34 16 -27 17L52 28Q70 30 80.0 43.5Q90 57 96 76Q99 87 118.0 158.0Q137 229 166.5 338.5Q196 448 231.0 577.0Q266 706 300.5 834.5Q335 963 364.0 1071.5Q393 1180 411.0 1248.5Q429 1317 431 1325Q436 1347 428.5 1358.0Q421 1369 398 1372L324 1382Q316 1383 313.5 1385.5Q311 1388 311 1392Q311 1396 314.5 1398.0Q318 1400 325 1400H1023Q1164 1400 1265.0 1349.0Q1366 1298 1415.0 1207.5Q1464 1117 1449 997Q1433 862 1346.5 762.0Q1260 662 1117.0 607.0Q974 552 788 552Q685 552 637.0 570.0Q589 588 550 606ZM730 558 1102 614 1238 212Q1246 188 1257.0 173.0Q1268 158 1281.5 151.0Q1295 144 1309 144Q1332 144 1354.0 159.0Q1376 174 1400 213Q1404 219 1407.0 221.5Q1410 224 1413 222Q1416 221 1415.5 218.0Q1415 215 1413 210Q1355 94 1253.0 32.0Q1151 -30 1031 -30Q977 -30 937.5 -13.5Q898 3 872.5 36.0Q847 69 835 118Z"/>
    <path fill="#f2f2ee" transform="translate(3332 0)" d="M347 5Q388 5 417.0 42.0Q446 79 447 134Q448 171 433.5 200.5Q419 230 388.0 259.5Q357 289 309 324Q243 373 197.0 418.0Q151 463 129.5 510.0Q108 557 113 613Q121 694 174.0 765.5Q227 837 323.5 881.5Q420 926 557 926Q673 926 749.0 897.0Q825 868 863.5 822.5Q902 777 904 726Q906 667 877.0 631.0Q848 595 802 595Q744 595 706.0 636.5Q668 678 645 786Q631 852 606.0 877.0Q581 902 541 902Q499 902 472.5 867.0Q446 832 445 772Q444 731 460.5 694.5Q477 658 520.0 617.0Q563 576 641 518Q704 472 742.5 431.0Q781 390 796.0 347.5Q811 305 801 253Q787 175 725.5 113.5Q664 52 565.0 16.0Q466 -20 337 -20Q212 -20 134.5 11.5Q57 43 22.0 93.0Q-13 143 -13 198Q-13 250 12.5 286.0Q38 322 87 322Q150 322 184.0 277.5Q218 233 240 130Q254 61 277.5 33.0Q301 5 347 5Z"/>
    <path fill="#f2f2ee" transform="translate(4228 0)" d="M610 926Q743 926 839.5 874.0Q936 822 985.0 727.5Q1034 633 1021 507Q1010 398 967.0 302.5Q924 207 849.5 134.5Q775 62 669.5 21.0Q564 -20 428 -20Q304 -20 209.5 32.0Q115 84 66.5 178.5Q18 273 30 398Q42 511 86.0 607.0Q130 703 204.5 774.5Q279 846 381.0 886.0Q483 926 610 926ZM428 17Q459 17 493.5 70.5Q528 124 561.0 211.0Q594 298 621.0 400.5Q648 503 665.0 603.5Q682 704 683 783Q684 826 676.0 849.0Q668 872 654.5 880.5Q641 889 623 889Q591 889 556.5 835.5Q522 782 489.0 695.0Q456 608 429.0 505.5Q402 403 386.0 302.5Q370 202 368 123Q368 80 375.0 57.0Q382 34 396.0 25.5Q410 17 428 17Z"/>
    <path fill="#f2f2ee" transform="translate(5278 0)" d="M445 872 455 896H702Q710 896 713.5 893.0Q717 890 717 885Q717 881 714.5 878.0Q712 875 707.5 873.5Q703 872 697 872ZM128 884Q128 889 131.5 892.5Q135 896 144 896H248L325 1179Q368 1336 452.0 1403.0Q536 1470 663 1470Q743 1470 783.5 1433.0Q824 1396 824 1348Q824 1297 785.5 1262.0Q747 1227 682 1227Q637 1227 604.0 1247.0Q571 1267 546.0 1294.0Q521 1321 500.0 1341.0Q479 1361 459 1361Q443 1361 433.0 1350.5Q423 1340 420 1321Q414 1279 444.5 1227.0Q475 1175 515.5 1116.5Q556 1058 582.0 997.5Q608 937 592 878L329 -121Q321 -152 317.5 -172.0Q314 -192 314 -208Q314 -239 331.5 -255.5Q349 -272 366.5 -281.5Q384 -291 384 -303Q384 -321 335.0 -350.5Q286 -380 206.5 -403.0Q127 -426 35 -426Q-45 -426 -64.5 -384.5Q-84 -343 -56 -239L203 726Q226 814 211.5 843.0Q197 872 144 872Q135 872 131.5 875.5Q128 879 128 884Z"/>
    <path fill="#f2f2ee" transform="translate(5888 0)" d="M195 861 133 872Q126 874 123.5 877.5Q121 881 121 885Q121 890 125.0 893.0Q129 896 135 896H236Q244 896 250.0 898.0Q256 900 266 906L617 1114Q622 1117 628.0 1119.5Q634 1122 641 1122Q646 1122 648.5 1118.0Q651 1114 651 1108Q651 1105 650.0 1099.0Q649 1093 647 1084L416 242Q394 163 405.5 134.5Q417 106 443 106Q472 106 503.0 130.0Q534 154 570 206Q578 218 581.0 221.0Q584 224 588 224Q593 224 593.5 216.5Q594 209 586 194Q565 150 528.5 111.0Q492 72 442.5 42.5Q393 13 332.0 -3.5Q271 -20 200 -20Q123 -20 83.0 4.0Q43 28 36.0 78.5Q29 129 51 206L218 806Q225 832 219.5 845.0Q214 858 195 861ZM525 872 539 896H732Q747 896 747 885Q747 878 741.5 875.0Q736 872 727 872Z"/>
    <path fill="#f2f2ee" transform="translate(6542 0)" d="M1087 915Q1168 911 1191.5 843.5Q1215 776 1176 662Q1117 490 1037.0 362.0Q957 234 856.5 149.0Q756 64 637.5 22.0Q519 -20 382 -20Q277 -20 214.5 24.5Q152 69 152 149Q152 233 197.0 294.0Q242 355 309.5 400.0Q377 445 446.0 481.0Q515 517 564.0 550.0Q613 583 620 620L627 606Q550 606 481.0 629.0Q412 652 352.5 682.5Q293 713 244.0 738.0Q195 763 158 767Q124 771 109.0 756.5Q94 742 89 723Q76 664 172 636Q238 617 272.5 589.0Q307 561 302 516Q298 476 266.5 453.0Q235 430 191 430Q113 430 66.0 490.0Q19 550 36 641Q51 721 99.5 783.0Q148 845 220.5 880.5Q293 916 380 916Q428 916 481.0 909.5Q534 903 581.0 896.5Q628 890 658 890Q667 890 673.0 895.0Q679 900 684.0 904.5Q689 909 693 909Q698 909 700.0 904.0Q702 899 702 889Q702 838 691.0 775.5Q680 713 664.5 645.0Q649 577 633.0 509.5Q617 442 606.0 381.5Q595 321 595 273Q595 191 627.5 151.0Q660 111 719 111Q776 111 841.0 156.5Q906 202 970.0 286.0Q1034 370 1088.5 487.0Q1143 604 1177 747Q1138 554 1126.0 429.5Q1114 305 1123.5 235.5Q1133 166 1161.0 138.0Q1189 110 1229 110Q1264 110 1302.0 139.0Q1340 168 1375.0 218.0Q1410 268 1437.5 330.5Q1465 393 1480 460Q1487 493 1473.0 513.0Q1459 533 1434.5 547.5Q1410 562 1383 576Q1317 613 1294.5 650.5Q1272 688 1277 742Q1281 785 1303.0 824.5Q1325 864 1359.0 890.0Q1393 916 1434 916Q1500 916 1532.5 861.5Q1565 807 1565 711Q1565 590 1524.0 462.0Q1483 334 1409.5 224.5Q1336 115 1238.0 47.5Q1140 -20 1026 -20Q926 -20 865.0 27.5Q804 75 779.0 161.0Q754 247 763.5 362.0Q773 477 815 612Q859 754 933.5 836.5Q1008 919 1087 915Z"/>
    <path fill="#f2f2ee" transform="translate(8128 0)" d="M906 242Q884 160 889.5 133.0Q895 106 916 106Q936 106 957.0 123.0Q978 140 1009 182Q1018 194 1020.5 197.0Q1023 200 1027 200Q1032 200 1032.0 192.5Q1032 185 1025 170Q989 91 902.5 35.5Q816 -20 688 -20Q605 -20 573.5 12.5Q542 45 542 102Q542 118 545.5 141.5Q549 165 554.5 191.0Q560 217 565.5 240.0Q571 263 574 278L586 274Q547 174 503.0 109.0Q459 44 399.5 12.0Q340 -20 254 -20Q138 -20 74.5 49.5Q11 119 11 240Q11 343 45.5 442.0Q80 541 144.0 626.5Q208 712 296.0 777.0Q384 842 491.0 879.0Q598 916 719 916Q820 916 910.0 901.5Q1000 887 1056.5 869.0Q1113 851 1113 840Q1113 828 1100.0 824.5Q1087 821 1073.0 816.5Q1059 812 1055 796ZM378 207Q378 137 391.5 112.5Q405 88 424 88Q448 88 472.0 114.5Q496 141 520.5 193.5Q545 246 570.5 322.0Q596 398 623.5 496.5Q651 595 682 715Q703 796 702.5 843.0Q702 890 660 890Q622 890 582.0 845.5Q542 801 505.5 727.0Q469 653 440.5 563.0Q412 473 395.0 380.5Q378 288 378 207Z"/>
    <path fill="#f2f2ee" transform="translate(9226 0)" d="M48 662Q45 662 45.0 665.5Q45 669 50 678Q91 748 151.0 801.5Q211 855 282.5 885.5Q354 916 427 916Q498 916 529.0 886.5Q560 857 560 810Q560 762 546.5 713.5Q533 665 513.5 615.0Q494 565 476.0 511.5Q458 458 448 400L434 405Q471 529 517.0 624.0Q563 719 616.0 784.0Q669 849 727.0 882.5Q785 916 846 916Q922 916 955.0 855.0Q988 794 974 708Q963 641 935.0 596.0Q907 551 866.5 528.0Q826 505 777 505Q724 505 691.5 530.5Q659 556 659 610Q659 635 664.5 659.0Q670 683 670 703Q670 722 663.5 731.5Q657 741 643 741Q621 741 591.0 704.5Q561 668 529.0 597.5Q497 527 469 424Q447 345 432.5 287.0Q418 229 418 198Q418 167 435.5 150.5Q453 134 470.5 124.5Q488 115 488 103Q488 85 439.5 55.5Q391 26 311.0 3.0Q231 -20 138 -20Q83 -20 57.0 -0.5Q31 19 28.0 54.0Q25 89 38 136L186 648Q203 707 200.5 732.5Q198 758 178 758Q159 758 134.5 741.0Q110 724 66 674Q60 667 56.0 664.5Q52 662 48 662Z"/>
    <path fill="#f2f2ee" transform="translate(10158 0)" d="M221 418Q221 418 252.0 426.5Q283 435 333.0 449.0Q383 463 440.5 479.5Q498 496 552.5 511.5Q607 527 646 538L612 513Q630 557 642.5 622.0Q655 687 656 770Q657 829 644.0 861.5Q631 894 604 894Q576 894 548.0 868.0Q520 842 495.0 791.5Q470 741 450.0 668.5Q430 596 418 503Q398 348 446.5 262.5Q495 177 622 177Q673 177 719.0 197.0Q765 217 805.5 258.0Q846 299 881 361Q886 368 890.0 370.5Q894 373 898 371Q903 370 904.0 364.0Q905 358 901 350Q847 230 770.5 147.5Q694 65 595.0 22.5Q496 -20 375 -20Q259 -20 178.0 27.5Q97 75 60.5 167.5Q24 260 40 394Q54 505 101.0 602.0Q148 699 223.0 771.5Q298 844 396.5 885.0Q495 926 611 926Q722 926 792.0 887.5Q862 849 894.0 787.0Q926 725 922 654Q921 641 926.5 632.0Q932 623 951 619Q959 618 961.0 615.5Q963 613 963 610Q963 608 961.0 605.0Q959 602 951 600Q931 595 871.0 578.5Q811 562 729.5 538.5Q648 515 561.0 490.5Q474 466 399.0 444.5Q324 423 277.5 409.5Q231 396 231 396Z"/>
  </g>
  <g transform="translate(80.00 274.55384615384617) scale(0.05661538461538462 -0.05661538461538462)">
    <path fill="#f2f2ee" transform="translate(0 0)" d="M445 872 455 896H702Q710 896 713.5 893.0Q717 890 717 885Q717 881 714.5 878.0Q712 875 707.5 873.5Q703 872 697 872ZM128 884Q128 889 131.5 892.5Q135 896 144 896H248L325 1179Q368 1336 452.0 1403.0Q536 1470 663 1470Q743 1470 783.5 1433.0Q824 1396 824 1348Q824 1297 785.5 1262.0Q747 1227 682 1227Q637 1227 604.0 1247.0Q571 1267 546.0 1294.0Q521 1321 500.0 1341.0Q479 1361 459 1361Q443 1361 433.0 1350.5Q423 1340 420 1321Q414 1279 444.5 1227.0Q475 1175 515.5 1116.5Q556 1058 582.0 997.5Q608 937 592 878L329 -121Q321 -152 317.5 -172.0Q314 -192 314 -208Q314 -239 331.5 -255.5Q349 -272 366.5 -281.5Q384 -291 384 -303Q384 -321 335.0 -350.5Q286 -380 206.5 -403.0Q127 -426 35 -426Q-45 -426 -64.5 -384.5Q-84 -343 -56 -239L203 726Q226 814 211.5 843.0Q197 872 144 872Q135 872 131.5 875.5Q128 879 128 884Z"/>
    <path fill="#f2f2ee" transform="translate(610 0)" d="M610 926Q743 926 839.5 874.0Q936 822 985.0 727.5Q1034 633 1021 507Q1010 398 967.0 302.5Q924 207 849.5 134.5Q775 62 669.5 21.0Q564 -20 428 -20Q304 -20 209.5 32.0Q115 84 66.5 178.5Q18 273 30 398Q42 511 86.0 607.0Q130 703 204.5 774.5Q279 846 381.0 886.0Q483 926 610 926ZM428 17Q459 17 493.5 70.5Q528 124 561.0 211.0Q594 298 621.0 400.5Q648 503 665.0 603.5Q682 704 683 783Q684 826 676.0 849.0Q668 872 654.5 880.5Q641 889 623 889Q591 889 556.5 835.5Q522 782 489.0 695.0Q456 608 429.0 505.5Q402 403 386.0 302.5Q370 202 368 123Q368 80 375.0 57.0Q382 34 396.0 25.5Q410 17 428 17Z"/>
    <path fill="#f2f2ee" transform="translate(1660 0)" d="M48 662Q45 662 45.0 665.5Q45 669 50 678Q91 748 151.0 801.5Q211 855 282.5 885.5Q354 916 427 916Q498 916 529.0 886.5Q560 857 560 810Q560 762 546.5 713.5Q533 665 513.5 615.0Q494 565 476.0 511.5Q458 458 448 400L434 405Q471 529 517.0 624.0Q563 719 616.0 784.0Q669 849 727.0 882.5Q785 916 846 916Q922 916 955.0 855.0Q988 794 974 708Q963 641 935.0 596.0Q907 551 866.5 528.0Q826 505 777 505Q724 505 691.5 530.5Q659 556 659 610Q659 635 664.5 659.0Q670 683 670 703Q670 722 663.5 731.5Q657 741 643 741Q621 741 591.0 704.5Q561 668 529.0 597.5Q497 527 469 424Q447 345 432.5 287.0Q418 229 418 198Q418 167 435.5 150.5Q453 134 470.5 124.5Q488 115 488 103Q488 85 439.5 55.5Q391 26 311.0 3.0Q231 -20 138 -20Q83 -20 57.0 -0.5Q31 19 28.0 54.0Q25 89 38 136L186 648Q203 707 200.5 732.5Q198 758 178 758Q159 758 134.5 741.0Q110 724 66 674Q60 667 56.0 664.5Q52 662 48 662Z"/>
    <path fill="#f2f2ee" transform="translate(2892 0)" d="M645 1103 266 -340Q254 -385 249.0 -407.5Q244 -430 281 -435L354 -445Q364 -446 368.0 -448.5Q372 -451 372 -455Q372 -459 368.0 -461.5Q364 -464 356 -464L-204 -471Q-210 -471 -213.0 -469.5Q-216 -468 -216 -464Q-216 -460 -213.0 -457.5Q-210 -455 -203 -454Q-162 -447 -144.0 -439.0Q-126 -431 -118.5 -415.0Q-111 -399 -103 -368L262 948Q266 961 302.0 982.0Q338 1003 390.0 1027.0Q442 1051 495.0 1073.0Q548 1095 587.0 1108.5Q626 1122 635 1122Q642 1122 645.0 1118.5Q648 1115 645 1103ZM104 694Q100 690 94.5 690.0Q89 690 86 693Q82 697 83.5 702.5Q85 708 90 713Q155 773 230.0 821.5Q305 870 408.0 898.0Q511 926 659 926Q802 926 898.5 868.0Q995 810 1038.5 708.5Q1082 607 1067 474Q1051 329 973.5 220.0Q896 111 778.5 50.5Q661 -10 525 -10Q425 -10 366.5 26.0Q308 62 275 123L296 130Q321 87 351.5 64.0Q382 41 421 41Q473 41 524.5 88.0Q576 135 621.0 235.0Q666 335 696 495Q724 641 717.0 730.0Q710 819 678.5 859.0Q647 899 601 899Q458 899 334.0 847.5Q210 796 104 694Z"/>
    <path fill="#f2f2ee" transform="translate(4006 0)" d="M221 418Q221 418 252.0 426.5Q283 435 333.0 449.0Q383 463 440.5 479.5Q498 496 552.5 511.5Q607 527 646 538L612 513Q630 557 642.5 622.0Q655 687 656 770Q657 829 644.0 861.5Q631 894 604 894Q576 894 548.0 868.0Q520 842 495.0 791.5Q470 741 450.0 668.5Q430 596 418 503Q398 348 446.5 262.5Q495 177 622 177Q673 177 719.0 197.0Q765 217 805.5 258.0Q846 299 881 361Q886 368 890.0 370.5Q894 373 898 371Q903 370 904.0 364.0Q905 358 901 350Q847 230 770.5 147.5Q694 65 595.0 22.5Q496 -20 375 -20Q259 -20 178.0 27.5Q97 75 60.5 167.5Q24 260 40 394Q54 505 101.0 602.0Q148 699 223.0 771.5Q298 844 396.5 885.0Q495 926 611 926Q722 926 792.0 887.5Q862 849 894.0 787.0Q926 725 922 654Q921 641 926.5 632.0Q932 623 951 619Q959 618 961.0 615.5Q963 613 963 610Q963 608 961.0 605.0Q959 602 951 600Q931 595 871.0 578.5Q811 562 729.5 538.5Q648 515 561.0 490.5Q474 466 399.0 444.5Q324 423 277.5 409.5Q231 396 231 396Z"/>
    <path fill="#f2f2ee" transform="translate(4966 0)" d="M610 926Q743 926 839.5 874.0Q936 822 985.0 727.5Q1034 633 1021 507Q1010 398 967.0 302.5Q924 207 849.5 134.5Q775 62 669.5 21.0Q564 -20 428 -20Q304 -20 209.5 32.0Q115 84 66.5 178.5Q18 273 30 398Q42 511 86.0 607.0Q130 703 204.5 774.5Q279 846 381.0 886.0Q483 926 610 926ZM428 17Q459 17 493.5 70.5Q528 124 561.0 211.0Q594 298 621.0 400.5Q648 503 665.0 603.5Q682 704 683 783Q684 826 676.0 849.0Q668 872 654.5 880.5Q641 889 623 889Q591 889 556.5 835.5Q522 782 489.0 695.0Q456 608 429.0 505.5Q402 403 386.0 302.5Q370 202 368 123Q368 80 375.0 57.0Q382 34 396.0 25.5Q410 17 428 17Z"/>
    <path fill="#f2f2ee" transform="translate(6016 0)" d="M645 1103 266 -340Q254 -385 249.0 -407.5Q244 -430 281 -435L354 -445Q364 -446 368.0 -448.5Q372 -451 372 -455Q372 -459 368.0 -461.5Q364 -464 356 -464L-204 -471Q-210 -471 -213.0 -469.5Q-216 -468 -216 -464Q-216 -460 -213.0 -457.5Q-210 -455 -203 -454Q-162 -447 -144.0 -439.0Q-126 -431 -118.5 -415.0Q-111 -399 -103 -368L262 948Q266 961 302.0 982.0Q338 1003 390.0 1027.0Q442 1051 495.0 1073.0Q548 1095 587.0 1108.5Q626 1122 635 1122Q642 1122 645.0 1118.5Q648 1115 645 1103ZM104 694Q100 690 94.5 690.0Q89 690 86 693Q82 697 83.5 702.5Q85 708 90 713Q155 773 230.0 821.5Q305 870 408.0 898.0Q511 926 659 926Q802 926 898.5 868.0Q995 810 1038.5 708.5Q1082 607 1067 474Q1051 329 973.5 220.0Q896 111 778.5 50.5Q661 -10 525 -10Q425 -10 366.5 26.0Q308 62 275 123L296 130Q321 87 351.5 64.0Q382 41 421 41Q473 41 524.5 88.0Q576 135 621.0 235.0Q666 335 696 495Q724 641 717.0 730.0Q710 819 678.5 859.0Q647 899 601 899Q458 899 334.0 847.5Q210 796 104 694Z"/>
    <path fill="#f2f2ee" transform="translate(7130 0)" d="M658 1470Q754 1470 802.5 1434.0Q851 1398 851 1348Q851 1305 820.5 1276.0Q790 1247 737 1247Q699 1247 658.0 1264.0Q617 1281 577.0 1304.0Q537 1327 503.0 1344.0Q469 1361 445 1361Q431 1361 420.5 1354.5Q410 1348 404.0 1336.5Q398 1325 398 1310Q398 1280 422.0 1252.0Q446 1224 478.5 1190.0Q511 1156 538.5 1108.5Q566 1061 575.0 994.5Q584 928 558 833L398 242Q376 160 381.5 133.0Q387 106 408 106Q428 106 449.0 123.0Q470 140 501 182Q510 194 512.5 197.0Q515 200 519 200Q524 200 524.0 192.5Q524 185 517 170Q493 117 445.0 74.0Q397 31 327.5 5.5Q258 -20 171 -20Q94 -20 57.5 6.5Q21 33 16.5 83.5Q12 134 32 206L299 1179Q343 1337 434.0 1403.5Q525 1470 658 1470Z"/>
    <path fill="#f2f2ee" transform="translate(7720 0)" d="M221 418Q221 418 252.0 426.5Q283 435 333.0 449.0Q383 463 440.5 479.5Q498 496 552.5 511.5Q607 527 646 538L612 513Q630 557 642.5 622.0Q655 687 656 770Q657 829 644.0 861.5Q631 894 604 894Q576 894 548.0 868.0Q520 842 495.0 791.5Q470 741 450.0 668.5Q430 596 418 503Q398 348 446.5 262.5Q495 177 622 177Q673 177 719.0 197.0Q765 217 805.5 258.0Q846 299 881 361Q886 368 890.0 370.5Q894 373 898 371Q903 370 904.0 364.0Q905 358 901 350Q847 230 770.5 147.5Q694 65 595.0 22.5Q496 -20 375 -20Q259 -20 178.0 27.5Q97 75 60.5 167.5Q24 260 40 394Q54 505 101.0 602.0Q148 699 223.0 771.5Q298 844 396.5 885.0Q495 926 611 926Q722 926 792.0 887.5Q862 849 894.0 787.0Q926 725 922 654Q921 641 926.5 632.0Q932 623 951 619Q959 618 961.0 615.5Q963 613 963 610Q963 608 961.0 605.0Q959 602 951 600Q931 595 871.0 578.5Q811 562 729.5 538.5Q648 515 561.0 490.5Q474 466 399.0 444.5Q324 423 277.5 409.5Q231 396 231 396Z"/>
    <path fill="#f2f2ee" transform="translate(8980 0)" d="M1087 915Q1168 911 1191.5 843.5Q1215 776 1176 662Q1117 490 1037.0 362.0Q957 234 856.5 149.0Q756 64 637.5 22.0Q519 -20 382 -20Q277 -20 214.5 24.5Q152 69 152 149Q152 233 197.0 294.0Q242 355 309.5 400.0Q377 445 446.0 481.0Q515 517 564.0 550.0Q613 583 620 620L627 606Q550 606 481.0 629.0Q412 652 352.5 682.5Q293 713 244.0 738.0Q195 763 158 767Q124 771 109.0 756.5Q94 742 89 723Q76 664 172 636Q238 617 272.5 589.0Q307 561 302 516Q298 476 266.5 453.0Q235 430 191 430Q113 430 66.0 490.0Q19 550 36 641Q51 721 99.5 783.0Q148 845 220.5 880.5Q293 916 380 916Q428 916 481.0 909.5Q534 903 581.0 896.5Q628 890 658 890Q667 890 673.0 895.0Q679 900 684.0 904.5Q689 909 693 909Q698 909 700.0 904.0Q702 899 702 889Q702 838 691.0 775.5Q680 713 664.5 645.0Q649 577 633.0 509.5Q617 442 606.0 381.5Q595 321 595 273Q595 191 627.5 151.0Q660 111 719 111Q776 111 841.0 156.5Q906 202 970.0 286.0Q1034 370 1088.5 487.0Q1143 604 1177 747Q1138 554 1126.0 429.5Q1114 305 1123.5 235.5Q1133 166 1161.0 138.0Q1189 110 1229 110Q1264 110 1302.0 139.0Q1340 168 1375.0 218.0Q1410 268 1437.5 330.5Q1465 393 1480 460Q1487 493 1473.0 513.0Q1459 533 1434.5 547.5Q1410 562 1383 576Q1317 613 1294.5 650.5Q1272 688 1277 742Q1281 785 1303.0 824.5Q1325 864 1359.0 890.0Q1393 916 1434 916Q1500 916 1532.5 861.5Q1565 807 1565 711Q1565 590 1524.0 462.0Q1483 334 1409.5 224.5Q1336 115 1238.0 47.5Q1140 -20 1026 -20Q926 -20 865.0 27.5Q804 75 779.0 161.0Q754 247 763.5 362.0Q773 477 815 612Q859 754 933.5 836.5Q1008 919 1087 915Z"/>
    <path fill="#f2f2ee" transform="translate(10566 0)" d="M431 390Q464 482 499.5 548.0Q535 614 569.0 656.0Q603 698 632.5 717.5Q662 737 683 737Q718 737 724.5 708.5Q731 680 706 597L589 206Q566 130 567.5 79.5Q569 29 604.5 4.5Q640 -20 717 -20Q861 -20 949.0 35.5Q1037 91 1073 170Q1080 185 1080.0 192.5Q1080 200 1075 200Q1071 200 1068.5 197.0Q1066 194 1057 182Q1026 140 1005.0 123.0Q984 106 964 106Q943 106 936.5 133.5Q930 161 954 242L1083 678Q1106 754 1097.5 807.0Q1089 860 1051.0 888.0Q1013 916 946 916Q877 916 789.5 879.5Q702 843 614.0 755.0Q526 667 453 510L461 508L686 1313Q697 1353 710.0 1377.0Q723 1401 738.0 1411.5Q753 1422 769 1422Q808 1422 844.5 1390.5Q881 1359 919.0 1317.0Q957 1275 999.0 1243.5Q1041 1212 1091 1212Q1142 1212 1172.0 1242.5Q1202 1273 1202 1316Q1202 1382 1128.5 1426.0Q1055 1470 916 1470Q733 1470 593.5 1401.5Q454 1333 360.0 1204.5Q266 1076 218 896L9 114Q-4 64 -2.0 34.5Q0 5 26.0 -7.5Q52 -20 112 -20Q259 -20 336.5 6.5Q414 33 414 78Q414 99 404.0 113.5Q394 128 394 152Q394 172 396.5 211.0Q399 250 407.0 297.5Q415 345 431 390Z"/>
    <path fill="#f2f2ee" transform="translate(11702 0)" d="M610 926Q743 926 839.5 874.0Q936 822 985.0 727.5Q1034 633 1021 507Q1010 398 967.0 302.5Q924 207 849.5 134.5Q775 62 669.5 21.0Q564 -20 428 -20Q304 -20 209.5 32.0Q115 84 66.5 178.5Q18 273 30 398Q42 511 86.0 607.0Q130 703 204.5 774.5Q279 846 381.0 886.0Q483 926 610 926ZM428 17Q459 17 493.5 70.5Q528 124 561.0 211.0Q594 298 621.0 400.5Q648 503 665.0 603.5Q682 704 683 783Q684 826 676.0 849.0Q668 872 654.5 880.5Q641 889 623 889Q591 889 556.5 835.5Q522 782 489.0 695.0Q456 608 429.0 505.5Q402 403 386.0 302.5Q370 202 368 123Q368 80 375.0 57.0Q382 34 396.0 25.5Q410 17 428 17Z"/>
    <path fill="#f2f2ee" transform="translate(13052 0)" d="M431 390Q464 482 499.5 548.0Q535 614 569.0 656.0Q603 698 632.5 717.5Q662 737 683 737Q718 737 724.5 708.5Q731 680 706 597L589 206Q566 130 567.5 79.5Q569 29 604.5 4.5Q640 -20 717 -20Q861 -20 949.0 35.5Q1037 91 1073 170Q1080 185 1080.0 192.5Q1080 200 1075 200Q1071 200 1068.5 197.0Q1066 194 1057 182Q1026 140 1005.0 123.0Q984 106 964 106Q943 106 936.5 133.5Q930 161 954 242L1083 678Q1106 754 1097.5 807.0Q1089 860 1051.0 888.0Q1013 916 946 916Q877 916 789.5 879.5Q702 843 614.0 755.0Q526 667 453 510L461 508L686 1313Q697 1353 710.0 1377.0Q723 1401 738.0 1411.5Q753 1422 769 1422Q808 1422 844.5 1390.5Q881 1359 919.0 1317.0Q957 1275 999.0 1243.5Q1041 1212 1091 1212Q1142 1212 1172.0 1242.5Q1202 1273 1202 1316Q1202 1382 1128.5 1426.0Q1055 1470 916 1470Q733 1470 593.5 1401.5Q454 1333 360.0 1204.5Q266 1076 218 896L9 114Q-4 64 -2.0 34.5Q0 5 26.0 -7.5Q52 -20 112 -20Q259 -20 336.5 6.5Q414 33 414 78Q414 99 404.0 113.5Q394 128 394 152Q394 172 396.5 211.0Q399 250 407.0 297.5Q415 345 431 390Z"/>
    <path fill="#f2f2ee" transform="translate(14188 0)" d="M906 242Q884 160 889.5 133.0Q895 106 916 106Q936 106 957.0 123.0Q978 140 1009 182Q1018 194 1020.5 197.0Q1023 200 1027 200Q1032 200 1032.0 192.5Q1032 185 1025 170Q989 91 902.5 35.5Q816 -20 688 -20Q605 -20 573.5 12.5Q542 45 542 102Q542 118 545.5 141.5Q549 165 554.5 191.0Q560 217 565.5 240.0Q571 263 574 278L586 274Q547 174 503.0 109.0Q459 44 399.5 12.0Q340 -20 254 -20Q138 -20 74.5 49.5Q11 119 11 240Q11 343 45.5 442.0Q80 541 144.0 626.5Q208 712 296.0 777.0Q384 842 491.0 879.0Q598 916 719 916Q820 916 910.0 901.5Q1000 887 1056.5 869.0Q1113 851 1113 840Q1113 828 1100.0 824.5Q1087 821 1073.0 816.5Q1059 812 1055 796ZM378 207Q378 137 391.5 112.5Q405 88 424 88Q448 88 472.0 114.5Q496 141 520.5 193.5Q545 246 570.5 322.0Q596 398 623.5 496.5Q651 595 682 715Q703 796 702.5 843.0Q702 890 660 890Q622 890 582.0 845.5Q542 801 505.5 727.0Q469 653 440.5 563.0Q412 473 395.0 380.5Q378 288 378 207Z"/>
    <path fill="#f2f2ee" transform="translate(15286 0)" d="M195 861 133 872Q126 874 123.5 877.5Q121 881 121 885Q121 890 125.0 893.0Q129 896 135 896H236Q244 896 250.0 898.0Q256 900 266 906L617 1114Q622 1117 628.0 1119.5Q634 1122 641 1122Q646 1122 648.5 1118.0Q651 1114 651 1108Q651 1105 650.0 1099.0Q649 1093 647 1084L416 242Q394 163 405.5 134.5Q417 106 443 106Q472 106 503.0 130.0Q534 154 570 206Q578 218 581.0 221.0Q584 224 588 224Q593 224 593.5 216.5Q594 209 586 194Q565 150 528.5 111.0Q492 72 442.5 42.5Q393 13 332.0 -3.5Q271 -20 200 -20Q123 -20 83.0 4.0Q43 28 36.0 78.5Q29 129 51 206L218 806Q225 832 219.5 845.0Q214 858 195 861ZM525 872 539 896H732Q747 896 747 885Q747 878 741.5 875.0Q736 872 727 872Z"/>
    <path fill="#f2f2ee" transform="translate(15940 0)" d="M221 418Q221 418 252.0 426.5Q283 435 333.0 449.0Q383 463 440.5 479.5Q498 496 552.5 511.5Q607 527 646 538L612 513Q630 557 642.5 622.0Q655 687 656 770Q657 829 644.0 861.5Q631 894 604 894Q576 894 548.0 868.0Q520 842 495.0 791.5Q470 741 450.0 668.5Q430 596 418 503Q398 348 446.5 262.5Q495 177 622 177Q673 177 719.0 197.0Q765 217 805.5 258.0Q846 299 881 361Q886 368 890.0 370.5Q894 373 898 371Q903 370 904.0 364.0Q905 358 901 350Q847 230 770.5 147.5Q694 65 595.0 22.5Q496 -20 375 -20Q259 -20 178.0 27.5Q97 75 60.5 167.5Q24 260 40 394Q54 505 101.0 602.0Q148 699 223.0 771.5Q298 844 396.5 885.0Q495 926 611 926Q722 926 792.0 887.5Q862 849 894.0 787.0Q926 725 922 654Q921 641 926.5 632.0Q932 623 951 619Q959 618 961.0 615.5Q963 613 963 610Q963 608 961.0 605.0Q959 602 951 600Q931 595 871.0 578.5Q811 562 729.5 538.5Q648 515 561.0 490.5Q474 466 399.0 444.5Q324 423 277.5 409.5Q231 396 231 396Z"/>
  </g>
  <g transform="translate(80.00 399.10769230769233) scale(0.05661538461538462 -0.05661538461538462)">
    <path fill="#b4ff39" transform="translate(0 0)" d="M514 64Q511 52 517.5 42.0Q524 32 545 29L618 19Q628 18 632.0 15.5Q636 13 636 9Q636 5 632.0 2.5Q628 0 620 0H-28Q-34 0 -37.0 1.5Q-40 3 -40 7Q-40 11 -37.0 13.5Q-34 16 -27 17L52 28Q68 30 78.5 42.0Q89 54 96 76Q99 87 118.0 158.0Q137 229 167.0 339.0Q197 449 231.5 578.5Q266 708 300.5 837.0Q335 966 364.5 1074.5Q394 1183 412.0 1252.0Q430 1321 432 1328Q435 1348 428.0 1358.5Q421 1369 398 1372L324 1382Q316 1383 313.5 1385.5Q311 1388 311 1392Q311 1396 314.5 1398.0Q318 1400 325 1400H965Q972 1400 974.5 1398.0Q977 1396 977 1393Q977 1390 974.5 1387.0Q972 1384 964 1383L885 1372Q870 1370 861.0 1360.0Q852 1350 842 1324Q840 1318 821.5 1249.5Q803 1181 774.5 1072.5Q746 964 712.5 834.5Q679 705 645.0 574.5Q611 444 582.5 332.5Q554 221 535.5 148.5Q517 76 514 64ZM492 668H1206L1202 644H488ZM1288 64Q1285 52 1291.5 42.0Q1298 32 1319 29L1392 19Q1402 18 1406.0 15.5Q1410 13 1410 9Q1410 5 1406.0 2.5Q1402 0 1394 0H746Q740 0 737.0 1.5Q734 3 734 7Q734 11 737.0 13.5Q740 16 747 17L826 28Q842 30 852.5 42.0Q863 54 870 76Q873 87 892.0 158.0Q911 229 941.0 339.0Q971 449 1005.5 578.5Q1040 708 1074.5 837.0Q1109 966 1138.5 1074.5Q1168 1183 1186.0 1252.0Q1204 1321 1206 1328Q1209 1348 1202.0 1358.5Q1195 1369 1172 1372L1098 1382Q1090 1383 1087.5 1385.5Q1085 1388 1085 1392Q1085 1396 1088.5 1398.0Q1092 1400 1099 1400H1739Q1746 1400 1748.5 1398.0Q1751 1396 1751 1393Q1751 1390 1748.5 1387.0Q1746 1384 1738 1383L1659 1372Q1644 1370 1635.0 1360.0Q1626 1350 1616 1324Q1614 1318 1595.5 1249.5Q1577 1181 1548.5 1072.5Q1520 964 1486.5 834.5Q1453 705 1419.0 574.5Q1385 444 1356.5 332.5Q1328 221 1309.5 148.5Q1291 76 1288 64Z"/>
    <path fill="#b4ff39" transform="translate(1592 0)" d="M550 606 556 627Q611 600 656.5 592.5Q702 585 738 585Q814 585 880.0 629.0Q946 673 996.0 768.0Q1046 863 1072 1015Q1095 1147 1082.0 1226.0Q1069 1305 1032.5 1340.5Q996 1376 947 1376Q904 1376 876.5 1354.5Q849 1333 834 1288Q830 1276 811.5 1206.5Q793 1137 765.0 1030.5Q737 924 704.0 799.5Q671 675 639.0 550.5Q607 426 579.5 320.0Q552 214 534.5 145.0Q517 76 514 64Q511 52 517.5 42.0Q524 32 545 29L618 19Q628 18 632.0 15.5Q636 13 636 9Q636 5 632.0 2.5Q628 0 620 0H-28Q-34 0 -37.0 1.5Q-40 3 -40 7Q-40 11 -37.0 13.5Q-34 16 -27 17L52 28Q70 30 80.0 43.5Q90 57 96 76Q99 87 118.0 158.0Q137 229 166.5 338.5Q196 448 231.0 577.0Q266 706 300.5 834.5Q335 963 364.0 1071.5Q393 1180 411.0 1248.5Q429 1317 431 1325Q436 1347 428.5 1358.0Q421 1369 398 1372L324 1382Q316 1383 313.5 1385.5Q311 1388 311 1392Q311 1396 314.5 1398.0Q318 1400 325 1400H1023Q1164 1400 1265.0 1349.0Q1366 1298 1415.0 1207.5Q1464 1117 1449 997Q1433 862 1346.5 762.0Q1260 662 1117.0 607.0Q974 552 788 552Q685 552 637.0 570.0Q589 588 550 606ZM730 558 1102 614 1238 212Q1246 188 1257.0 173.0Q1268 158 1281.5 151.0Q1295 144 1309 144Q1332 144 1354.0 159.0Q1376 174 1400 213Q1404 219 1407.0 221.5Q1410 224 1413 222Q1416 221 1415.5 218.0Q1415 215 1413 210Q1355 94 1253.0 32.0Q1151 -30 1031 -30Q977 -30 937.5 -13.5Q898 3 872.5 36.0Q847 69 835 118Z"/>
    <path fill="#b4ff39" transform="translate(3332 0)" d="M347 5Q388 5 417.0 42.0Q446 79 447 134Q448 171 433.5 200.5Q419 230 388.0 259.5Q357 289 309 324Q243 373 197.0 418.0Q151 463 129.5 510.0Q108 557 113 613Q121 694 174.0 765.5Q227 837 323.5 881.5Q420 926 557 926Q673 926 749.0 897.0Q825 868 863.5 822.5Q902 777 904 726Q906 667 877.0 631.0Q848 595 802 595Q744 595 706.0 636.5Q668 678 645 786Q631 852 606.0 877.0Q581 902 541 902Q499 902 472.5 867.0Q446 832 445 772Q444 731 460.5 694.5Q477 658 520.0 617.0Q563 576 641 518Q704 472 742.5 431.0Q781 390 796.0 347.5Q811 305 801 253Q787 175 725.5 113.5Q664 52 565.0 16.0Q466 -20 337 -20Q212 -20 134.5 11.5Q57 43 22.0 93.0Q-13 143 -13 198Q-13 250 12.5 286.0Q38 322 87 322Q150 322 184.0 277.5Q218 233 240 130Q254 61 277.5 33.0Q301 5 347 5Z"/>
    <path fill="#b4ff39" transform="translate(4228 0)" d="M610 926Q743 926 839.5 874.0Q936 822 985.0 727.5Q1034 633 1021 507Q1010 398 967.0 302.5Q924 207 849.5 134.5Q775 62 669.5 21.0Q564 -20 428 -20Q304 -20 209.5 32.0Q115 84 66.5 178.5Q18 273 30 398Q42 511 86.0 607.0Q130 703 204.5 774.5Q279 846 381.0 886.0Q483 926 610 926ZM428 17Q459 17 493.5 70.5Q528 124 561.0 211.0Q594 298 621.0 400.5Q648 503 665.0 603.5Q682 704 683 783Q684 826 676.0 849.0Q668 872 654.5 880.5Q641 889 623 889Q591 889 556.5 835.5Q522 782 489.0 695.0Q456 608 429.0 505.5Q402 403 386.0 302.5Q370 202 368 123Q368 80 375.0 57.0Q382 34 396.0 25.5Q410 17 428 17Z"/>
    <path fill="#b4ff39" transform="translate(5278 0)" d="M445 872 455 896H702Q710 896 713.5 893.0Q717 890 717 885Q717 881 714.5 878.0Q712 875 707.5 873.5Q703 872 697 872ZM128 884Q128 889 131.5 892.5Q135 896 144 896H248L325 1179Q368 1336 452.0 1403.0Q536 1470 663 1470Q743 1470 783.5 1433.0Q824 1396 824 1348Q824 1297 785.5 1262.0Q747 1227 682 1227Q637 1227 604.0 1247.0Q571 1267 546.0 1294.0Q521 1321 500.0 1341.0Q479 1361 459 1361Q443 1361 433.0 1350.5Q423 1340 420 1321Q414 1279 444.5 1227.0Q475 1175 515.5 1116.5Q556 1058 582.0 997.5Q608 937 592 878L329 -121Q321 -152 317.5 -172.0Q314 -192 314 -208Q314 -239 331.5 -255.5Q349 -272 366.5 -281.5Q384 -291 384 -303Q384 -321 335.0 -350.5Q286 -380 206.5 -403.0Q127 -426 35 -426Q-45 -426 -64.5 -384.5Q-84 -343 -56 -239L203 726Q226 814 211.5 843.0Q197 872 144 872Q135 872 131.5 875.5Q128 879 128 884Z"/>
    <path fill="#b4ff39" transform="translate(5888 0)" d="M195 861 133 872Q126 874 123.5 877.5Q121 881 121 885Q121 890 125.0 893.0Q129 896 135 896H236Q244 896 250.0 898.0Q256 900 266 906L617 1114Q622 1117 628.0 1119.5Q634 1122 641 1122Q646 1122 648.5 1118.0Q651 1114 651 1108Q651 1105 650.0 1099.0Q649 1093 647 1084L416 242Q394 163 405.5 134.5Q417 106 443 106Q472 106 503.0 130.0Q534 154 570 206Q578 218 581.0 221.0Q584 224 588 224Q593 224 593.5 216.5Q594 209 586 194Q565 150 528.5 111.0Q492 72 442.5 42.5Q393 13 332.0 -3.5Q271 -20 200 -20Q123 -20 83.0 4.0Q43 28 36.0 78.5Q29 129 51 206L218 806Q225 832 219.5 845.0Q214 858 195 861ZM525 872 539 896H732Q747 896 747 885Q747 878 741.5 875.0Q736 872 727 872Z"/>
    <path fill="#b4ff39" transform="translate(6542 0)" d="M1087 915Q1168 911 1191.5 843.5Q1215 776 1176 662Q1117 490 1037.0 362.0Q957 234 856.5 149.0Q756 64 637.5 22.0Q519 -20 382 -20Q277 -20 214.5 24.5Q152 69 152 149Q152 233 197.0 294.0Q242 355 309.5 400.0Q377 445 446.0 481.0Q515 517 564.0 550.0Q613 583 620 620L627 606Q550 606 481.0 629.0Q412 652 352.5 682.5Q293 713 244.0 738.0Q195 763 158 767Q124 771 109.0 756.5Q94 742 89 723Q76 664 172 636Q238 617 272.5 589.0Q307 561 302 516Q298 476 266.5 453.0Q235 430 191 430Q113 430 66.0 490.0Q19 550 36 641Q51 721 99.5 783.0Q148 845 220.5 880.5Q293 916 380 916Q428 916 481.0 909.5Q534 903 581.0 896.5Q628 890 658 890Q667 890 673.0 895.0Q679 900 684.0 904.5Q689 909 693 909Q698 909 700.0 904.0Q702 899 702 889Q702 838 691.0 775.5Q680 713 664.5 645.0Q649 577 633.0 509.5Q617 442 606.0 381.5Q595 321 595 273Q595 191 627.5 151.0Q660 111 719 111Q776 111 841.0 156.5Q906 202 970.0 286.0Q1034 370 1088.5 487.0Q1143 604 1177 747Q1138 554 1126.0 429.5Q1114 305 1123.5 235.5Q1133 166 1161.0 138.0Q1189 110 1229 110Q1264 110 1302.0 139.0Q1340 168 1375.0 218.0Q1410 268 1437.5 330.5Q1465 393 1480 460Q1487 493 1473.0 513.0Q1459 533 1434.5 547.5Q1410 562 1383 576Q1317 613 1294.5 650.5Q1272 688 1277 742Q1281 785 1303.0 824.5Q1325 864 1359.0 890.0Q1393 916 1434 916Q1500 916 1532.5 861.5Q1565 807 1565 711Q1565 590 1524.0 462.0Q1483 334 1409.5 224.5Q1336 115 1238.0 47.5Q1140 -20 1026 -20Q926 -20 865.0 27.5Q804 75 779.0 161.0Q754 247 763.5 362.0Q773 477 815 612Q859 754 933.5 836.5Q1008 919 1087 915Z"/>
    <path fill="#b4ff39" transform="translate(8128 0)" d="M906 242Q884 160 889.5 133.0Q895 106 916 106Q936 106 957.0 123.0Q978 140 1009 182Q1018 194 1020.5 197.0Q1023 200 1027 200Q1032 200 1032.0 192.5Q1032 185 1025 170Q989 91 902.5 35.5Q816 -20 688 -20Q605 -20 573.5 12.5Q542 45 542 102Q542 118 545.5 141.5Q549 165 554.5 191.0Q560 217 565.5 240.0Q571 263 574 278L586 274Q547 174 503.0 109.0Q459 44 399.5 12.0Q340 -20 254 -20Q138 -20 74.5 49.5Q11 119 11 240Q11 343 45.5 442.0Q80 541 144.0 626.5Q208 712 296.0 777.0Q384 842 491.0 879.0Q598 916 719 916Q820 916 910.0 901.5Q1000 887 1056.5 869.0Q1113 851 1113 840Q1113 828 1100.0 824.5Q1087 821 1073.0 816.5Q1059 812 1055 796ZM378 207Q378 137 391.5 112.5Q405 88 424 88Q448 88 472.0 114.5Q496 141 520.5 193.5Q545 246 570.5 322.0Q596 398 623.5 496.5Q651 595 682 715Q703 796 702.5 843.0Q702 890 660 890Q622 890 582.0 845.5Q542 801 505.5 727.0Q469 653 440.5 563.0Q412 473 395.0 380.5Q378 288 378 207Z"/>
    <path fill="#b4ff39" transform="translate(9226 0)" d="M48 662Q45 662 45.0 665.5Q45 669 50 678Q91 748 151.0 801.5Q211 855 282.5 885.5Q354 916 427 916Q498 916 529.0 886.5Q560 857 560 810Q560 762 546.5 713.5Q533 665 513.5 615.0Q494 565 476.0 511.5Q458 458 448 400L434 405Q471 529 517.0 624.0Q563 719 616.0 784.0Q669 849 727.0 882.5Q785 916 846 916Q922 916 955.0 855.0Q988 794 974 708Q963 641 935.0 596.0Q907 551 866.5 528.0Q826 505 777 505Q724 505 691.5 530.5Q659 556 659 610Q659 635 664.5 659.0Q670 683 670 703Q670 722 663.5 731.5Q657 741 643 741Q621 741 591.0 704.5Q561 668 529.0 597.5Q497 527 469 424Q447 345 432.5 287.0Q418 229 418 198Q418 167 435.5 150.5Q453 134 470.5 124.5Q488 115 488 103Q488 85 439.5 55.5Q391 26 311.0 3.0Q231 -20 138 -20Q83 -20 57.0 -0.5Q31 19 28.0 54.0Q25 89 38 136L186 648Q203 707 200.5 732.5Q198 758 178 758Q159 758 134.5 741.0Q110 724 66 674Q60 667 56.0 664.5Q52 662 48 662Z"/>
    <path fill="#b4ff39" transform="translate(10158 0)" d="M221 418Q221 418 252.0 426.5Q283 435 333.0 449.0Q383 463 440.5 479.5Q498 496 552.5 511.5Q607 527 646 538L612 513Q630 557 642.5 622.0Q655 687 656 770Q657 829 644.0 861.5Q631 894 604 894Q576 894 548.0 868.0Q520 842 495.0 791.5Q470 741 450.0 668.5Q430 596 418 503Q398 348 446.5 262.5Q495 177 622 177Q673 177 719.0 197.0Q765 217 805.5 258.0Q846 299 881 361Q886 368 890.0 370.5Q894 373 898 371Q903 370 904.0 364.0Q905 358 901 350Q847 230 770.5 147.5Q694 65 595.0 22.5Q496 -20 375 -20Q259 -20 178.0 27.5Q97 75 60.5 167.5Q24 260 40 394Q54 505 101.0 602.0Q148 699 223.0 771.5Q298 844 396.5 885.0Q495 926 611 926Q722 926 792.0 887.5Q862 849 894.0 787.0Q926 725 922 654Q921 641 926.5 632.0Q932 623 951 619Q959 618 961.0 615.5Q963 613 963 610Q963 608 961.0 605.0Q959 602 951 600Q931 595 871.0 578.5Q811 562 729.5 538.5Q648 515 561.0 490.5Q474 466 399.0 444.5Q324 423 277.5 409.5Q231 396 231 396Z"/>
    <path fill="#b4ff39" transform="translate(11118 0)" d="M184 -20Q107 -20 63.5 21.0Q20 62 20 126Q20 186 52.5 236.0Q85 286 144.5 316.0Q204 346 283 346Q365 346 408.0 304.0Q451 262 451 199Q451 145 420.5 94.5Q390 44 331.0 12.0Q272 -20 184 -20Z"/>
  </g>
  <g transform="translate(979.9 570)">
    <circle cx="0" cy="0" r="22" fill="none" stroke="#b4ff39" stroke-width="1.2" opacity="0.55"/>
    <circle cx="0" cy="0" r="14.5" fill="none" stroke="#b4ff39" stroke-width="1.6"/>
    <circle cx="0" cy="0" r="4.5" fill="#b4ff39"/>
  </g>
  <g transform="translate(993.9 578) scale(0.02 -0.02)">
    <path fill="#f2f2ee" transform="translate(0 0)" d="M1444 957Q1431 847 1377.5 757.5Q1324 668 1236.5 604.0Q1149 540 1032.0 506.0Q915 472 773 472Q674 472 628.0 487.0Q582 502 545 519L551 540Q600 516 640.5 510.5Q681 505 713 505Q793 505 861.5 553.5Q930 602 982.5 705.5Q1035 809 1067 975Q1095 1121 1082.0 1209.0Q1069 1297 1031.5 1336.5Q994 1376 947 1376Q904 1376 876.5 1354.5Q849 1333 834 1288Q830 1276 811.5 1206.5Q793 1137 765.0 1030.5Q737 924 704.0 799.5Q671 675 639.0 550.5Q607 426 579.5 320.0Q552 214 534.5 145.0Q517 76 514 64Q511 54 516.0 44.5Q521 35 536 33L678 20Q687 19 691.5 16.5Q696 14 696 10Q696 5 692.0 2.5Q688 0 680 0H-28Q-34 0 -37.0 1.5Q-40 3 -40 7Q-40 11 -37.0 13.5Q-34 16 -27 17L52 28Q70 30 80.0 43.5Q90 57 96 76Q99 87 118.0 158.0Q137 229 166.5 338.5Q196 448 231.0 577.0Q266 706 300.5 834.5Q335 963 364.0 1071.5Q393 1180 411.0 1248.5Q429 1317 431 1325Q436 1347 428.5 1358.0Q421 1369 398 1372L324 1382Q316 1383 313.5 1385.5Q311 1388 311 1392Q311 1396 314.5 1398.0Q318 1400 325 1400H1023Q1128 1400 1211.0 1368.0Q1294 1336 1350.0 1277.0Q1406 1218 1431.0 1136.5Q1456 1055 1444 957Z"/>
    <path fill="#f2f2ee" transform="translate(1370 0)" d="M1116 234Q1121 234 1120.0 229.0Q1119 224 1114 218Q1053 114 950.0 47.0Q847 -20 737 -20Q670 -20 637.0 8.0Q604 36 604 90Q604 123 613.0 164.0Q622 205 634.5 246.5Q647 288 659.0 325.5Q671 363 677 388L685 386Q631 269 567.0 190.5Q503 112 437.0 66.0Q371 20 309.0 0.0Q247 -20 195 -20Q131 -20 93.0 7.0Q55 34 46.0 87.5Q37 141 60 218L189 654Q213 735 206.5 762.5Q200 790 179 790Q160 790 138.5 773.0Q117 756 86 714Q77 702 74.5 699.0Q72 696 68 696Q64 696 63.5 703.5Q63 711 70 726Q106 806 194.5 861.0Q283 916 425 916Q503 916 538.5 891.5Q574 867 575.5 817.0Q577 767 554 690L437 299Q412 217 419.0 188.0Q426 159 458 159Q479 159 507.5 178.5Q536 198 570.0 240.0Q604 282 639.0 348.0Q674 414 707 506Q723 551 733.5 597.0Q744 643 750.0 682.0Q756 721 756 744Q756 768 746.0 782.5Q736 797 736 818Q736 863 813.0 889.5Q890 916 1034 916Q1120 916 1136.5 886.0Q1153 856 1132 782L978 248Q961 189 963.5 163.5Q966 138 986 138Q1006 138 1030.5 155.5Q1055 173 1098 222Q1104 228 1108.0 231.0Q1112 234 1116 234Z"/>
    <path fill="#f2f2ee" transform="translate(2527 0)" d="M658 1470Q754 1470 802.5 1434.0Q851 1398 851 1348Q851 1305 820.5 1276.0Q790 1247 737 1247Q699 1247 658.0 1264.0Q617 1281 577.0 1304.0Q537 1327 503.0 1344.0Q469 1361 445 1361Q431 1361 420.5 1354.5Q410 1348 404.0 1336.5Q398 1325 398 1310Q398 1280 422.0 1252.0Q446 1224 478.5 1190.0Q511 1156 538.5 1108.5Q566 1061 575.0 994.5Q584 928 558 833L398 242Q376 160 381.5 133.0Q387 106 408 106Q428 106 449.0 123.0Q470 140 501 182Q510 194 512.5 197.0Q515 200 519 200Q524 200 524.0 192.5Q524 185 517 170Q493 117 445.0 74.0Q397 31 327.5 5.5Q258 -20 171 -20Q94 -20 57.5 6.5Q21 33 16.5 83.5Q12 134 32 206L299 1179Q343 1337 434.0 1403.5Q525 1470 658 1470Z"/>
    <path fill="#f2f2ee" transform="translate(3117 0)" d="M347 5Q388 5 417.0 42.0Q446 79 447 134Q448 171 433.5 200.5Q419 230 388.0 259.5Q357 289 309 324Q243 373 197.0 418.0Q151 463 129.5 510.0Q108 557 113 613Q121 694 174.0 765.5Q227 837 323.5 881.5Q420 926 557 926Q673 926 749.0 897.0Q825 868 863.5 822.5Q902 777 904 726Q906 667 877.0 631.0Q848 595 802 595Q744 595 706.0 636.5Q668 678 645 786Q631 852 606.0 877.0Q581 902 541 902Q499 902 472.5 867.0Q446 832 445 772Q444 731 460.5 694.5Q477 658 520.0 617.0Q563 576 641 518Q704 472 742.5 431.0Q781 390 796.0 347.5Q811 305 801 253Q787 175 725.5 113.5Q664 52 565.0 16.0Q466 -20 337 -20Q212 -20 134.5 11.5Q57 43 22.0 93.0Q-13 143 -13 198Q-13 250 12.5 286.0Q38 322 87 322Q150 322 184.0 277.5Q218 233 240 130Q254 61 277.5 33.0Q301 5 347 5Z"/>
    <path fill="#f2f2ee" transform="translate(4013 0)" d="M221 418Q221 418 252.0 426.5Q283 435 333.0 449.0Q383 463 440.5 479.5Q498 496 552.5 511.5Q607 527 646 538L612 513Q630 557 642.5 622.0Q655 687 656 770Q657 829 644.0 861.5Q631 894 604 894Q576 894 548.0 868.0Q520 842 495.0 791.5Q470 741 450.0 668.5Q430 596 418 503Q398 348 446.5 262.5Q495 177 622 177Q673 177 719.0 197.0Q765 217 805.5 258.0Q846 299 881 361Q886 368 890.0 370.5Q894 373 898 371Q903 370 904.0 364.0Q905 358 901 350Q847 230 770.5 147.5Q694 65 595.0 22.5Q496 -20 375 -20Q259 -20 178.0 27.5Q97 75 60.5 167.5Q24 260 40 394Q54 505 101.0 602.0Q148 699 223.0 771.5Q298 844 396.5 885.0Q495 926 611 926Q722 926 792.0 887.5Q862 849 894.0 787.0Q926 725 922 654Q921 641 926.5 632.0Q932 623 951 619Q959 618 961.0 615.5Q963 613 963 610Q963 608 961.0 605.0Q959 602 951 600Q931 595 871.0 578.5Q811 562 729.5 538.5Q648 515 561.0 490.5Q474 466 399.0 444.5Q324 423 277.5 409.5Q231 396 231 396Z"/>
  </g>
  <g transform="translate(1099.36 578) scale(0.02 -0.02)">
    <path fill="#b4ff39" transform="translate(0 0)" d="M514 64Q511 52 517.5 42.0Q524 32 545 29L618 19Q628 18 632.0 15.5Q636 13 636 9Q636 5 632.0 2.5Q628 0 620 0H-28Q-34 0 -37.0 1.5Q-40 3 -40 7Q-40 11 -37.0 13.5Q-34 16 -27 17L52 28Q68 30 78.5 42.0Q89 54 96 76Q99 87 118.0 158.0Q137 229 167.0 339.0Q197 449 231.5 578.5Q266 708 300.5 837.0Q335 966 364.5 1074.5Q394 1183 412.0 1252.0Q430 1321 432 1328Q435 1348 428.0 1358.5Q421 1369 398 1372L324 1382Q316 1383 313.5 1385.5Q311 1388 311 1392Q311 1396 314.5 1398.0Q318 1400 325 1400H965Q972 1400 974.5 1398.0Q977 1396 977 1393Q977 1390 974.5 1387.0Q972 1384 964 1383L885 1372Q870 1370 861.0 1360.0Q852 1350 842 1324Q840 1318 821.5 1249.5Q803 1181 774.5 1072.5Q746 964 712.5 834.5Q679 705 645.0 574.5Q611 444 582.5 332.5Q554 221 535.5 148.5Q517 76 514 64ZM492 668H1206L1202 644H488ZM1288 64Q1285 52 1291.5 42.0Q1298 32 1319 29L1392 19Q1402 18 1406.0 15.5Q1410 13 1410 9Q1410 5 1406.0 2.5Q1402 0 1394 0H746Q740 0 737.0 1.5Q734 3 734 7Q734 11 737.0 13.5Q740 16 747 17L826 28Q842 30 852.5 42.0Q863 54 870 76Q873 87 892.0 158.0Q911 229 941.0 339.0Q971 449 1005.5 578.5Q1040 708 1074.5 837.0Q1109 966 1138.5 1074.5Q1168 1183 1186.0 1252.0Q1204 1321 1206 1328Q1209 1348 1202.0 1358.5Q1195 1369 1172 1372L1098 1382Q1090 1383 1087.5 1385.5Q1085 1388 1085 1392Q1085 1396 1088.5 1398.0Q1092 1400 1099 1400H1739Q1746 1400 1748.5 1398.0Q1751 1396 1751 1393Q1751 1390 1748.5 1387.0Q1746 1384 1738 1383L1659 1372Q1644 1370 1635.0 1360.0Q1626 1350 1616 1324Q1614 1318 1595.5 1249.5Q1577 1181 1548.5 1072.5Q1520 964 1486.5 834.5Q1453 705 1419.0 574.5Q1385 444 1356.5 332.5Q1328 221 1309.5 148.5Q1291 76 1288 64Z"/>
    <path fill="#b4ff39" transform="translate(1592 0)" d="M550 606 556 627Q611 600 656.5 592.5Q702 585 738 585Q814 585 880.0 629.0Q946 673 996.0 768.0Q1046 863 1072 1015Q1095 1147 1082.0 1226.0Q1069 1305 1032.5 1340.5Q996 1376 947 1376Q904 1376 876.5 1354.5Q849 1333 834 1288Q830 1276 811.5 1206.5Q793 1137 765.0 1030.5Q737 924 704.0 799.5Q671 675 639.0 550.5Q607 426 579.5 320.0Q552 214 534.5 145.0Q517 76 514 64Q511 52 517.5 42.0Q524 32 545 29L618 19Q628 18 632.0 15.5Q636 13 636 9Q636 5 632.0 2.5Q628 0 620 0H-28Q-34 0 -37.0 1.5Q-40 3 -40 7Q-40 11 -37.0 13.5Q-34 16 -27 17L52 28Q70 30 80.0 43.5Q90 57 96 76Q99 87 118.0 158.0Q137 229 166.5 338.5Q196 448 231.0 577.0Q266 706 300.5 834.5Q335 963 364.0 1071.5Q393 1180 411.0 1248.5Q429 1317 431 1325Q436 1347 428.5 1358.0Q421 1369 398 1372L324 1382Q316 1383 313.5 1385.5Q311 1388 311 1392Q311 1396 314.5 1398.0Q318 1400 325 1400H1023Q1164 1400 1265.0 1349.0Q1366 1298 1415.0 1207.5Q1464 1117 1449 997Q1433 862 1346.5 762.0Q1260 662 1117.0 607.0Q974 552 788 552Q685 552 637.0 570.0Q589 588 550 606ZM730 558 1102 614 1238 212Q1246 188 1257.0 173.0Q1268 158 1281.5 151.0Q1295 144 1309 144Q1332 144 1354.0 159.0Q1376 174 1400 213Q1404 219 1407.0 221.5Q1410 224 1413 222Q1416 221 1415.5 218.0Q1415 215 1413 210Q1355 94 1253.0 32.0Q1151 -30 1031 -30Q977 -30 937.5 -13.5Q898 3 872.5 36.0Q847 69 835 118Z"/>
  </g>
</svg>
