<svg xmlns="http://www.w3.org/2000/svg" viewBox="0 0 560 120" width="560" height="120" role="img" aria-label="Pulse HR">
  <rect width="560" height="120" fill="#0b0b0d"/>
  <g transform="translate(60 60)">
    <circle cx="0" cy="0" r="42"  fill="none" stroke="#f2f2ee" stroke-width="2.25" opacity="0.55"/>
    <circle cx="0" cy="0" r="27.5" fill="none" stroke="#f2f2ee" stroke-width="3"/>
    <circle cx="0" cy="0" r="9"   fill="#f2f2ee"/>
  </g>
  <g transform="translate(128 84) scale(0.044 -0.044)">
    <path fill="#f2f2ee" transform="translate(0 0)" d="M1444 957Q1431 847 1377.5 757.5Q1324 668 1236.5 604.0Q1149 540 1032.0 506.0Q915 472 773 472Q674 472 628.0 487.0Q582 502 545 519L551 540Q600 516 640.5 510.5Q681 505 713 505Q793 505 861.5 553.5Q930 602 982.5 705.5Q1035 809 1067 975Q1095 1121 1082.0 1209.0Q1069 1297 1031.5 1336.5Q994 1376 947 1376Q904 1376 876.5 1354.5Q849 1333 834 1288Q830 1276 811.5 1206.5Q793 1137 765.0 1030.5Q737 924 704.0 799.5Q671 675 639.0 550.5Q607 426 579.5 320.0Q552 214 534.5 145.0Q517 76 514 64Q511 54 516.0 44.5Q521 35 536 33L678 20Q687 19 691.5 16.5Q696 14 696 10Q696 5 692.0 2.5Q688 0 680 0H-28Q-34 0 -37.0 1.5Q-40 3 -40 7Q-40 11 -37.0 13.5Q-34 16 -27 17L52 28Q70 30 80.0 43.5Q90 57 96 76Q99 87 118.0 158.0Q137 229 166.5 338.5Q196 448 231.0 577.0Q266 706 300.5 834.5Q335 963 364.0 1071.5Q393 1180 411.0 1248.5Q429 1317 431 1325Q436 1347 428.5 1358.0Q421 1369 398 1372L324 1382Q316 1383 313.5 1385.5Q311 1388 311 1392Q311 1396 314.5 1398.0Q318 1400 325 1400H1023Q1128 1400 1211.0 1368.0Q1294 1336 1350.0 1277.0Q1406 1218 1431.0 1136.5Q1456 1055 1444 957Z"/>
    <path fill="#f2f2ee" transform="translate(1370 0)" d="M1116 234Q1121 234 1120.0 229.0Q1119 224 1114 218Q1053 114 950.0 47.0Q847 -20 737 -20Q670 -20 637.0 8.0Q604 36 604 90Q604 123 613.0 164.0Q622 205 634.5 246.5Q647 288 659.0 325.5Q671 363 677 388L685 386Q631 269 567.0 190.5Q503 112 437.0 66.0Q371 20 309.0 0.0Q247 -20 195 -20Q131 -20 93.0 7.0Q55 34 46.0 87.5Q37 141 60 218L189 654Q213 735 206.5 762.5Q200 790 179 790Q160 790 138.5 773.0Q117 756 86 714Q77 702 74.5 699.0Q72 696 68 696Q64 696 63.5 703.5Q63 711 70 726Q106 806 194.5 861.0Q283 916 425 916Q503 916 538.5 891.5Q574 867 575.5 817.0Q577 767 554 690L437 299Q412 217 419.0 188.0Q426 159 458 159Q479 159 507.5 178.5Q536 198 570.0 240.0Q604 282 639.0 348.0Q674 414 707 506Q723 551 733.5 597.0Q744 643 750.0 682.0Q756 721 756 744Q756 768 746.0 782.5Q736 797 736 818Q736 863 813.0 889.5Q890 916 1034 916Q1120 916 1136.5 886.0Q1153 856 1132 782L978 248Q961 189 963.5 163.5Q966 138 986 138Q1006 138 1030.5 155.5Q1055 173 1098 222Q1104 228 1108.0 231.0Q1112 234 1116 234Z"/>
    <path fill="#f2f2ee" transform="translate(2527 0)" d="M658 1470Q754 1470 802.5 1434.0Q851 1398 851 1348Q851 1305 820.5 1276.0Q790 1247 737 1247Q699 1247 658.0 1264.0Q617 1281 577.0 1304.0Q537 1327 503.0 1344.0Q469 1361 445 1361Q431 1361 420.5 1354.5Q410 1348 404.0 1336.5Q398 1325 398 1310Q398 1280 422.0 1252.0Q446 1224 478.5 1190.0Q511 1156 538.5 1108.5Q566 1061 575.0 994.5Q584 928 558 833L398 242Q376 160 381.5 133.0Q387 106 408 106Q428 106 449.0 123.0Q470 140 501 182Q510 194 512.5 197.0Q515 200 519 200Q524 200 524.0 192.5Q524 185 517 170Q493 117 445.0 74.0Q397 31 327.5 5.5Q258 -20 171 -20Q94 -20 57.5 6.5Q21 33 16.5 83.5Q12 134 32 206L299 1179Q343 1337 434.0 1403.5Q525 1470 658 1470Z"/>
    <path fill="#f2f2ee" transform="translate(3117 0)" d="M347 5Q388 5 417.0 42.0Q446 79 447 134Q448 171 433.5 200.5Q419 230 388.0 259.5Q357 289 309 324Q243 373 197.0 418.0Q151 463 129.5 510.0Q108 557 113 613Q121 694 174.0 765.5Q227 837 323.5 881.5Q420 926 557 926Q673 926 749.0 897.0Q825 868 863.5 822.5Q902 777 904 726Q906 667 877.0 631.0Q848 595 802 595Q744 595 706.0 636.5Q668 678 645 786Q631 852 606.0 877.0Q581 902 541 902Q499 902 472.5 867.0Q446 832 445 772Q444 731 460.5 694.5Q477 658 520.0 617.0Q563 576 641 518Q704 472 742.5 431.0Q781 390 796.0 347.5Q811 305 801 253Q787 175 725.5 113.5Q664 52 565.0 16.0Q466 -20 337 -20Q212 -20 134.5 11.5Q57 43 22.0 93.0Q-13 143 -13 198Q-13 250 12.5 286.0Q38 322 87 322Q150 322 184.0 277.5Q218 233 240 130Q254 61 277.5 33.0Q301 5 347 5Z"/>
    <path fill="#f2f2ee" transform="translate(4013 0)" d="M221 418Q221 418 252.0 426.5Q283 435 333.0 449.0Q383 463 440.5 479.5Q498 496 552.5 511.5Q607 527 646 538L612 513Q630 557 642.5 622.0Q655 687 656 770Q657 829 644.0 861.5Q631 894 604 894Q576 894 548.0 868.0Q520 842 495.0 791.5Q470 741 450.0 668.5Q430 596 418 503Q398 348 446.5 262.5Q495 177 622 177Q673 177 719.0 197.0Q765 217 805.5 258.0Q846 299 881 361Q886 368 890.0 370.5Q894 373 898 371Q903 370 904.0 364.0Q905 358 901 350Q847 230 770.5 147.5Q694 65 595.0 22.5Q496 -20 375 -20Q259 -20 178.0 27.5Q97 75 60.5 167.5Q24 260 40 394Q54 505 101.0 602.0Q148 699 223.0 771.5Q298 844 396.5 885.0Q495 926 611 926Q722 926 792.0 887.5Q862 849 894.0 787.0Q926 725 922 654Q921 641 926.5 632.0Q932 623 951 619Q959 618 961.0 615.5Q963 613 963 610Q963 608 961.0 605.0Q959 602 951 600Q931 595 871.0 578.5Q811 562 729.5 538.5Q648 515 561.0 490.5Q474 466 399.0 444.5Q324 423 277.5 409.5Q231 396 231 396Z"/>
    <path fill="#f2f2ee" transform="translate(5273 0)" d="M514 64Q511 52 517.5 42.0Q524 32 545 29L618 19Q628 18 632.0 15.5Q636 13 636 9Q636 5 632.0 2.5Q628 0 620 0H-28Q-34 0 -37.0 1.5Q-40 3 -40 7Q-40 11 -37.0 13.5Q-34 16 -27 17L52 28Q68 30 78.5 42.0Q89 54 96 76Q99 87 118.0 158.0Q137 229 167.0 339.0Q197 449 231.5 578.5Q266 708 300.5 837.0Q335 966 364.5 1074.5Q394 1183 412.0 1252.0Q430 1321 432 1328Q435 1348 428.0 1358.5Q421 1369 398 1372L324 1382Q316 1383 313.5 1385.5Q311 1388 311 1392Q311 1396 314.5 1398.0Q318 1400 325 1400H965Q972 1400 974.5 1398.0Q977 1396 977 1393Q977 1390 974.5 1387.0Q972 1384 964 1383L885 1372Q870 1370 861.0 1360.0Q852 1350 842 1324Q840 1318 821.5 1249.5Q803 1181 774.5 1072.5Q746 964 712.5 834.5Q679 705 645.0 574.5Q611 444 582.5 332.5Q554 221 535.5 148.5Q517 76 514 64ZM492 668H1206L1202 644H488ZM1288 64Q1285 52 1291.5 42.0Q1298 32 1319 29L1392 19Q1402 18 1406.0 15.5Q1410 13 1410 9Q1410 5 1406.0 2.5Q1402 0 1394 0H746Q740 0 737.0 1.5Q734 3 734 7Q734 11 737.0 13.5Q740 16 747 17L826 28Q842 30 852.5 42.0Q863 54 870 76Q873 87 892.0 158.0Q911 229 941.0 339.0Q971 449 1005.5 578.5Q1040 708 1074.5 837.0Q1109 966 1138.5 1074.5Q1168 1183 1186.0 1252.0Q1204 1321 1206 1328Q1209 1348 1202.0 1358.5Q1195 1369 1172 1372L1098 1382Q1090 1383 1087.5 1385.5Q1085 1388 1085 1392Q1085 1396 1088.5 1398.0Q1092 1400 1099 1400H1739Q1746 1400 1748.5 1398.0Q1751 1396 1751 1393Q1751 1390 1748.5 1387.0Q1746 1384 1738 1383L1659 1372Q1644 1370 1635.0 1360.0Q1626 1350 1616 1324Q1614 1318 1595.5 1249.5Q1577 1181 1548.5 1072.5Q1520 964 1486.5 834.5Q1453 705 1419.0 574.5Q1385 444 1356.5 332.5Q1328 221 1309.5 148.5Q1291 76 1288 64Z"/>
    <path fill="#f2f2ee" transform="translate(6865 0)" d="M550 606 556 627Q611 600 656.5 592.5Q702 585 738 585Q814 585 880.0 629.0Q946 673 996.0 768.0Q1046 863 1072 1015Q1095 1147 1082.0 1226.0Q1069 1305 1032.5 1340.5Q996 1376 947 1376Q904 1376 876.5 1354.5Q849 1333 834 1288Q830 1276 811.5 1206.5Q793 1137 765.0 1030.5Q737 924 704.0 799.5Q671 675 639.0 550.5Q607 426 579.5 320.0Q552 214 534.5 145.0Q517 76 514 64Q511 52 517.5 42.0Q524 32 545 29L618 19Q628 18 632.0 15.5Q636 13 636 9Q636 5 632.0 2.5Q628 0 620 0H-28Q-34 0 -37.0 1.5Q-40 3 -40 7Q-40 11 -37.0 13.5Q-34 16 -27 17L52 28Q70 30 80.0 43.5Q90 57 96 76Q99 87 118.0 158.0Q137 229 166.5 338.5Q196 448 231.0 577.0Q266 706 300.5 834.5Q335 963 364.0 1071.5Q393 1180 411.0 1248.5Q429 1317 431 1325Q436 1347 428.5 1358.0Q421 1369 398 1372L324 1382Q316 1383 313.5 1385.5Q311 1388 311 1392Q311 1396 314.5 1398.0Q318 1400 325 1400H1023Q1164 1400 1265.0 1349.0Q1366 1298 1415.0 1207.5Q1464 1117 1449 997Q1433 862 1346.5 762.0Q1260 662 1117.0 607.0Q974 552 788 552Q685 552 637.0 570.0Q589 588 550 606ZM730 558 1102 614 1238 212Q1246 188 1257.0 173.0Q1268 158 1281.5 151.0Q1295 144 1309 144Q1332 144 1354.0 159.0Q1376 174 1400 213Q1404 219 1407.0 221.5Q1410 224 1413 222Q1416 221 1415.5 218.0Q1415 215 1413 210Q1355 94 1253.0 32.0Q1151 -30 1031 -30Q977 -30 937.5 -13.5Q898 3 872.5 36.0Q847 69 835 118Z"/>
  </g>
</svg>
