<svg xmlns="http://www.w3.org/2000/svg" viewBox="0 0 1200 630" width="1200" height="630" role="img" aria-label="Everything you touch sticks. — Pulse HR">
  <rect width="1200" height="630" fill="#0b0b0d"/>
  <g transform="translate(80.00 340) scale(0.0401250863014255 -0.0401250863014255)">
    <path fill="#f2f2ee" transform="translate(0 0)" d="M599 756H787Q875 756 952.0 804.5Q1029 853 1056 971Q1058 979 1061.0 983.0Q1064 987 1068 987Q1073 987 1075.0 982.5Q1077 978 1078 970L1109 520Q1110 505 1109.0 499.0Q1108 493 1103 492Q1099 491 1095.5 494.0Q1092 497 1087 508Q1044 620 975.0 676.0Q906 732 779 732H586ZM735 0H-28Q-34 0 -37.0 1.5Q-40 3 -40 7Q-40 11 -37.0 13.5Q-34 16 -27 17L52 28Q70 30 80.0 43.5Q90 57 96 76Q99 88 118.5 160.0Q138 232 167.5 342.0Q197 452 231.5 580.0Q266 708 300.5 836.0Q335 964 363.5 1071.5Q392 1179 410.5 1246.5Q429 1314 430 1321Q435 1346 429.0 1357.5Q423 1369 398 1372L324 1382Q317 1383 314.0 1385.5Q311 1388 311 1392Q311 1396 314.5 1398.0Q318 1400 325 1400H1254Q1313 1400 1336.5 1415.0Q1360 1430 1370 1430Q1382 1430 1380 1412L1349 978Q1348 967 1346.5 961.0Q1345 955 1339 955Q1334 955 1330.5 960.0Q1327 965 1324 976Q1281 1143 1238.0 1229.0Q1195 1315 1138.0 1345.5Q1081 1376 993 1376H856Q853 1368 835.0 1299.0Q817 1230 788.0 1121.0Q759 1012 725.5 882.5Q692 753 658.0 623.0Q624 493 595.0 381.5Q566 270 547.5 197.5Q529 125 526 112Q518 77 520.0 57.5Q522 38 535.0 31.0Q548 24 572 24H668Q754 24 834.0 64.0Q914 104 1000.5 198.0Q1087 292 1192 454Q1203 470 1208 470Q1217 470 1215 452Q1202 317 1178.5 226.5Q1155 136 1118.5 81.5Q1082 27 1030.0 3.5Q978 -20 909 -20Q865 -20 824.5 -10.0Q784 0 735 0Z"/>
    <path fill="#f2f2ee" transform="translate(1296 0)" d="M1073 710Q1073 623 1038.0 523.5Q1003 424 939.5 328.0Q876 232 789.5 153.0Q703 74 599.5 27.0Q496 -20 381 -20Q278 -20 215.0 24.0Q152 68 152 148Q152 233 197.0 294.0Q242 355 309.0 400.0Q376 445 445.0 480.5Q514 516 563.5 549.0Q613 582 620 620L627 606Q550 606 481.0 629.0Q412 652 352.5 682.5Q293 713 244.0 738.0Q195 763 158 767Q124 771 109.0 756.5Q94 742 89 723Q76 664 172 636Q238 617 272.5 589.0Q307 561 302 516Q297 476 266.0 453.0Q235 430 191 430Q113 430 66.0 490.0Q19 550 36 641Q51 721 99.5 783.0Q148 845 220.5 880.5Q293 916 380 916Q428 916 481.0 909.5Q534 903 581.0 896.5Q628 890 658 890Q667 890 673.0 895.0Q679 900 684.0 904.5Q689 909 693 909Q698 909 700.0 904.0Q702 899 702 889Q702 837 691.0 774.5Q680 712 663.5 643.5Q647 575 630.5 505.0Q614 435 603.0 368.5Q592 302 592 243Q592 176 610.5 144.0Q629 112 663 111Q696 110 744.0 145.0Q792 180 840.0 235.0Q888 290 922.0 351.0Q956 412 962 463Q968 511 943.5 533.0Q919 555 881 576Q815 613 792.5 650.5Q770 688 775 742Q779 785 803.5 824.5Q828 864 865.0 890.0Q902 916 943 916Q1008 916 1040.5 861.5Q1073 807 1073 710Z"/>
    <path fill="#f2f2ee" transform="translate(2371 0)" d="M221 418Q221 418 252.0 426.5Q283 435 333.0 449.0Q383 463 440.5 479.5Q498 496 552.5 511.5Q607 527 646 538L612 513Q630 557 642.5 622.0Q655 687 656 770Q657 829 644.0 861.5Q631 894 604 894Q576 894 548.0 868.0Q520 842 495.0 791.5Q470 741 450.0 668.5Q430 596 418 503Q398 348 446.5 262.5Q495 177 622 177Q673 177 719.0 197.0Q765 217 805.5 258.0Q846 299 881 361Q886 368 890.0 370.5Q894 373 898 371Q903 370 904.0 364.0Q905 358 901 350Q847 230 770.5 147.5Q694 65 595.0 22.5Q496 -20 375 -20Q259 -20 178.0 27.5Q97 75 60.5 167.5Q24 260 40 394Q54 505 101.0 602.0Q148 699 223.0 771.5Q298 844 396.5 885.0Q495 926 611 926Q722 926 792.0 887.5Q862 849 894.0 787.0Q926 725 922 654Q921 641 926.5 632.0Q932 623 951 619Q959 618 961.0 615.5Q963 613 963 610Q963 608 961.0 605.0Q959 602 951 600Q931 595 871.0 578.5Q811 562 729.5 538.5Q648 515 561.0 490.5Q474 466 399.0 444.5Q324 423 277.5 409.5Q231 396 231 396Z"/>
    <path fill="#f2f2ee" transform="translate(3331 0)" d="M48 662Q45 662 45.0 665.5Q45 669 50 678Q91 748 151.0 801.5Q211 855 282.5 885.5Q354 916 427 916Q498 916 529.0 886.5Q560 857 560 810Q560 762 546.5 713.5Q533 665 513.5 615.0Q494 565 476.0 511.5Q458 458 448 400L434 405Q471 529 517.0 624.0Q563 719 616.0 784.0Q669 849 727.0 882.5Q785 916 846 916Q922 916 955.0 855.0Q988 794 974 708Q963 641 935.0 596.0Q907 551 866.5 528.0Q826 505 777 505Q724 505 691.5 530.5Q659 556 659 610Q659 635 664.5 659.0Q670 683 670 703Q670 722 663.5 731.5Q657 741 643 741Q621 741 591.0 704.5Q561 668 529.0 597.5Q497 527 469 424Q447 345 432.5 287.0Q418 229 418 198Q418 167 435.5 150.5Q453 134 470.5 124.5Q488 115 488 103Q488 85 439.5 55.5Q391 26 311.0 3.0Q231 -20 138 -20Q83 -20 57.0 -0.5Q31 19 28.0 54.0Q25 89 38 136L186 648Q203 707 200.5 732.5Q198 758 178 758Q159 758 134.5 741.0Q110 724 66 674Q60 667 56.0 664.5Q52 662 48 662Z"/>
    <path fill="#f2f2ee" transform="translate(4263 0)" d="M748 722Q777 811 818.0 863.5Q859 916 920 916Q970 916 997.5 882.0Q1025 848 1025 794Q1025 717 970.5 653.5Q916 590 830 541Q794 520 765.5 500.5Q737 481 714.5 456.5Q692 432 673.0 396.5Q654 361 637 308L492 -136Q449 -268 390.0 -348.0Q331 -428 244.5 -464.0Q158 -500 34 -500Q-116 -500 -194.0 -459.0Q-272 -418 -272 -350Q-272 -300 -239.5 -266.0Q-207 -232 -156 -232Q-118 -232 -84.0 -255.0Q-50 -278 -18.0 -312.5Q14 -347 44.5 -381.5Q75 -416 105.0 -439.0Q135 -462 166 -462Q185 -462 200.0 -456.5Q215 -451 226.0 -438.5Q237 -426 242.5 -406.0Q248 -386 248 -356Q248 -338 242.0 -265.0Q236 -192 226.5 -86.5Q217 19 206.0 136.5Q195 254 184.0 365.0Q173 476 165.0 559.5Q157 643 153 677Q149 722 140.0 738.5Q131 755 117 755Q101 755 85.5 736.5Q70 718 50 676Q46 669 43.5 666.0Q41 663 36 664Q32 665 30.5 669.0Q29 673 32 679Q61 749 110.0 802.0Q159 855 221.5 885.5Q284 916 352 916Q413 916 446.5 880.5Q480 845 486 774Q489 741 494.0 673.5Q499 606 506.0 519.5Q513 433 519.5 344.0Q526 255 532.0 178.5Q538 102 541 55L527 50Z"/>
    <path fill="#f2f2ee" transform="translate(5244 0)" d="M195 861 133 872Q126 874 123.5 877.5Q121 881 121 885Q121 890 125.0 893.0Q129 896 135 896H236Q244 896 250.0 898.0Q256 900 266 906L617 1114Q622 1117 628.0 1119.5Q634 1122 641 1122Q646 1122 648.5 1118.0Q651 1114 651 1108Q651 1105 650.0 1099.0Q649 1093 647 1084L416 242Q394 163 405.5 134.5Q417 106 443 106Q472 106 503.0 130.0Q534 154 570 206Q578 218 581.0 221.0Q584 224 588 224Q593 224 593.5 216.5Q594 209 586 194Q565 150 528.5 111.0Q492 72 442.5 42.5Q393 13 332.0 -3.5Q271 -20 200 -20Q123 -20 83.0 4.0Q43 28 36.0 78.5Q29 129 51 206L218 806Q225 832 219.5 845.0Q214 858 195 861ZM525 872 539 896H732Q747 896 747 885Q747 878 741.5 875.0Q736 872 727 872Z"/>
    <path fill="#f2f2ee" transform="translate(5898 0)" d="M431 390Q464 482 499.5 548.0Q535 614 569.0 656.0Q603 698 632.5 717.5Q662 737 683 737Q718 737 724.5 708.5Q731 680 706 597L589 206Q566 130 567.5 79.5Q569 29 604.5 4.5Q640 -20 717 -20Q861 -20 949.0 35.5Q1037 91 1073 170Q1080 185 1080.0 192.5Q1080 200 1075 200Q1071 200 1068.5 197.0Q1066 194 1057 182Q1026 140 1005.0 123.0Q984 106 964 106Q943 106 936.5 133.5Q930 161 954 242L1083 678Q1106 754 1097.5 807.0Q1089 860 1051.0 888.0Q1013 916 946 916Q877 916 789.5 879.5Q702 843 614.0 755.0Q526 667 453 510L461 508L686 1313Q697 1353 710.0 1377.0Q723 1401 738.0 1411.5Q753 1422 769 1422Q808 1422 844.5 1390.5Q881 1359 919.0 1317.0Q957 1275 999.0 1243.5Q1041 1212 1091 1212Q1142 1212 1172.0 1242.5Q1202 1273 1202 1316Q1202 1382 1128.5 1426.0Q1055 1470 916 1470Q733 1470 593.5 1401.5Q454 1333 360.0 1204.5Q266 1076 218 896L9 114Q-4 64 -2.0 34.5Q0 5 26.0 -7.5Q52 -20 112 -20Q259 -20 336.5 6.5Q414 33 414 78Q414 99 404.0 113.5Q394 128 394 152Q394 172 396.5 211.0Q399 250 407.0 297.5Q415 345 431 390Z"/>
    <path fill="#f2f2ee" transform="translate(7034 0)" d="M427 242Q403 161 409.5 133.5Q416 106 437 106Q457 106 478.0 123.0Q499 140 530 182Q539 194 541.5 197.0Q544 200 548 200Q553 200 553.0 192.5Q553 185 546 170Q510 91 421.0 35.5Q332 -20 189 -20Q111 -20 75.5 4.5Q40 29 38.5 79.5Q37 130 60 206L194 648Q212 707 209.0 732.5Q206 758 186 758Q167 758 142.5 741.0Q118 724 74 674Q68 668 64.5 665.0Q61 662 56 662Q52 662 53.0 666.5Q54 671 58 678Q119 782 215.5 849.0Q312 916 423 916Q487 916 525.0 889.0Q563 862 572.5 809.0Q582 756 558 678ZM426 992Q354 992 313.0 1028.5Q272 1065 272 1122Q272 1174 302.5 1223.0Q333 1272 387.5 1304.0Q442 1336 515 1336Q604 1336 643.5 1299.5Q683 1263 683 1207Q683 1148 653.5 1099.0Q624 1050 567.0 1021.0Q510 992 426 992Z"/>
    <path fill="#f2f2ee" transform="translate(7649 0)" d="M48 662Q44 662 45.0 667.0Q46 672 50 678Q111 782 214.5 849.0Q318 916 427 916Q494 916 527.0 888.0Q560 860 560 806Q560 773 551.0 732.0Q542 691 529.5 649.5Q517 608 505.0 571.0Q493 534 487 508L479 510Q533 627 597.5 705.5Q662 784 728.5 830.0Q795 876 857.5 896.0Q920 916 972 916Q1037 916 1075.5 889.0Q1114 862 1123.0 809.0Q1132 756 1109 678L980 242Q956 161 962.5 133.5Q969 106 990 106Q1010 106 1031.0 123.0Q1052 140 1083 182Q1092 194 1094.5 197.0Q1097 200 1101 200Q1106 200 1106.0 192.5Q1106 185 1099 170Q1063 91 975.0 35.5Q887 -20 744 -20Q666 -20 630.5 4.5Q595 29 593.5 79.0Q592 129 615 206L732 597Q757 680 750.5 708.5Q744 737 709 737Q688 737 658.5 717.5Q629 698 595.0 656.0Q561 614 525.5 548.0Q490 482 457 390Q442 345 431.0 299.0Q420 253 414.0 214.0Q408 175 408 152Q408 128 418.0 113.5Q428 99 428 78Q428 33 351.0 6.5Q274 -20 130 -20Q45 -20 28.0 10.5Q11 41 32 114L186 648Q203 707 200.5 732.5Q198 758 178 758Q159 758 134.5 741.0Q110 724 66 674Q60 668 56.5 665.0Q53 662 48 662Z"/>
    <path fill="#f2f2ee" transform="translate(8811 0)" d="M864 84Q816 -96 722.0 -224.5Q628 -353 489.5 -421.5Q351 -490 167 -490Q28 -490 -46.0 -446.0Q-120 -402 -120 -336Q-120 -293 -90.5 -262.5Q-61 -232 -8 -232Q42 -232 84.0 -263.5Q126 -295 163.5 -337.0Q201 -379 237.0 -410.5Q273 -442 312 -442Q329 -442 343.5 -431.0Q358 -420 371.5 -396.0Q385 -372 396 -333L580 302L588 298Q553 186 508.0 116.0Q463 46 401.5 13.0Q340 -20 254 -20Q177 -20 122.5 11.5Q68 43 39.5 101.0Q11 159 11 239Q11 342 45.5 441.0Q80 540 144.0 626.0Q208 712 296.0 777.0Q384 842 491.0 879.0Q598 916 718 916Q819 916 909.0 901.5Q999 887 1055.5 869.0Q1112 851 1112 840Q1112 828 1099.0 824.5Q1086 821 1072.0 816.5Q1058 812 1054 796ZM378 207Q378 161 384.5 135.0Q391 109 401.5 98.5Q412 88 424 88Q448 88 472.0 114.5Q496 141 520.5 193.0Q545 245 570.5 321.0Q596 397 623.5 495.5Q651 594 682 714Q703 796 702.5 843.0Q702 890 660 890Q622 890 582.0 845.5Q542 801 505.5 727.0Q469 653 440.5 563.0Q412 473 395.0 380.5Q378 288 378 207Z"/>
    <path fill="#f2f2ee" transform="translate(10178 0)" d="M748 722Q777 811 818.0 863.5Q859 916 920 916Q970 916 997.5 882.0Q1025 848 1025 794Q1025 717 970.5 653.5Q916 590 830 541Q794 520 765.5 500.5Q737 481 714.5 456.5Q692 432 673.0 396.5Q654 361 637 308L492 -136Q449 -268 390.0 -348.0Q331 -428 244.5 -464.0Q158 -500 34 -500Q-116 -500 -194.0 -459.0Q-272 -418 -272 -350Q-272 -300 -239.5 -266.0Q-207 -232 -156 -232Q-118 -232 -84.0 -255.0Q-50 -278 -18.0 -312.5Q14 -347 44.5 -381.5Q75 -416 105.0 -439.0Q135 -462 166 -462Q185 -462 200.0 -456.5Q215 -451 226.0 -438.5Q237 -426 242.5 -406.0Q248 -386 248 -356Q248 -338 242.0 -265.0Q236 -192 226.5 -86.5Q217 19 206.0 136.5Q195 254 184.0 365.0Q173 476 165.0 559.5Q157 643 153 677Q149 722 140.0 738.5Q131 755 117 755Q101 755 85.5 736.5Q70 718 50 676Q46 669 43.5 666.0Q41 663 36 664Q32 665 30.5 669.0Q29 673 32 679Q61 749 110.0 802.0Q159 855 221.5 885.5Q284 916 352 916Q413 916 446.5 880.5Q480 845 486 774Q489 741 494.0 673.5Q499 606 506.0 519.5Q513 433 519.5 344.0Q526 255 532.0 178.5Q538 102 541 55L527 50Z"/>
    <path fill="#f2f2ee" transform="translate(11159 0)" d="M610 926Q743 926 839.5 874.0Q936 822 985.0 727.5Q1034 633 1021 507Q1010 398 967.0 302.5Q924 207 849.5 134.5Q775 62 669.5 21.0Q564 -20 428 -20Q304 -20 209.5 32.0Q115 84 66.5 178.5Q18 273 30 398Q42 511 86.0 607.0Q130 703 204.5 774.5Q279 846 381.0 886.0Q483 926 610 926ZM428 17Q459 17 493.5 70.5Q528 124 561.0 211.0Q594 298 621.0 400.5Q648 503 665.0 603.5Q682 704 683 783Q684 826 676.0 849.0Q668 872 654.5 880.5Q641 889 623 889Q591 889 556.5 835.5Q522 782 489.0 695.0Q456 608 429.0 505.5Q402 403 386.0 302.5Q370 202 368 123Q368 80 375.0 57.0Q382 34 396.0 25.5Q410 17 428 17Z"/>
    <path fill="#f2f2ee" transform="translate(12209 0)" d="M1116 234Q1121 234 1120.0 229.0Q1119 224 1114 218Q1053 114 950.0 47.0Q847 -20 737 -20Q670 -20 637.0 8.0Q604 36 604 90Q604 123 613.0 164.0Q622 205 634.5 246.5Q647 288 659.0 325.5Q671 363 677 388L685 386Q631 269 567.0 190.5Q503 112 437.0 66.0Q371 20 309.0 0.0Q247 -20 195 -20Q131 -20 93.0 7.0Q55 34 46.0 87.5Q37 141 60 218L189 654Q213 735 206.5 762.5Q200 790 179 790Q160 790 138.5 773.0Q117 756 86 714Q77 702 74.5 699.0Q72 696 68 696Q64 696 63.5 703.5Q63 711 70 726Q106 806 194.5 861.0Q283 916 425 916Q503 916 538.5 891.5Q574 867 575.5 817.0Q577 767 554 690L437 299Q412 217 419.0 188.0Q426 159 458 159Q479 159 507.5 178.5Q536 198 570.0 240.0Q604 282 639.0 348.0Q674 414 707 506Q723 551 733.5 597.0Q744 643 750.0 682.0Q756 721 756 744Q756 768 746.0 782.5Q736 797 736 818Q736 863 813.0 889.5Q890 916 1034 916Q1120 916 1136.5 886.0Q1153 856 1132 782L978 248Q961 189 963.5 163.5Q966 138 986 138Q1006 138 1030.5 155.5Q1055 173 1098 222Q1104 228 1108.0 231.0Q1112 234 1116 234Z"/>
    <path fill="#f2f2ee" transform="translate(13666 0)" d="M195 861 133 872Q126 874 123.5 877.5Q121 881 121 885Q121 890 125.0 893.0Q129 896 135 896H236Q244 896 250.0 898.0Q256 900 266 906L617 1114Q622 1117 628.0 1119.5Q634 1122 641 1122Q646 1122 648.5 1118.0Q651 1114 651 1108Q651 1105 650.0 1099.0Q649 1093 647 1084L416 242Q394 163 405.5 134.5Q417 106 443 106Q472 106 503.0 130.0Q534 154 570 206Q578 218 581.0 221.0Q584 224 588 224Q593 224 593.5 216.5Q594 209 586 194Q565 150 528.5 111.0Q492 72 442.5 42.5Q393 13 332.0 -3.5Q271 -20 200 -20Q123 -20 83.0 4.0Q43 28 36.0 78.5Q29 129 51 206L218 806Q225 832 219.5 845.0Q214 858 195 861ZM525 872 539 896H732Q747 896 747 885Q747 878 741.5 875.0Q736 872 727 872Z"/>
    <path fill="#f2f2ee" transform="translate(14320 0)" d="M610 926Q743 926 839.5 874.0Q936 822 985.0 727.5Q1034 633 1021 507Q1010 398 967.0 302.5Q924 207 849.5 134.5Q775 62 669.5 21.0Q564 -20 428 -20Q304 -20 209.5 32.0Q115 84 66.5 178.5Q18 273 30 398Q42 511 86.0 607.0Q130 703 204.5 774.5Q279 846 381.0 886.0Q483 926 610 926ZM428 17Q459 17 493.5 70.5Q528 124 561.0 211.0Q594 298 621.0 400.5Q648 503 665.0 603.5Q682 704 683 783Q684 826 676.0 849.0Q668 872 654.5 880.5Q641 889 623 889Q591 889 556.5 835.5Q522 782 489.0 695.0Q456 608 429.0 505.5Q402 403 386.0 302.5Q370 202 368 123Q368 80 375.0 57.0Q382 34 396.0 25.5Q410 17 428 17Z"/>
    <path fill="#f2f2ee" transform="translate(15370 0)" d="M1116 234Q1121 234 1120.0 229.0Q1119 224 1114 218Q1053 114 950.0 47.0Q847 -20 737 -20Q670 -20 637.0 8.0Q604 36 604 90Q604 123 613.0 164.0Q622 205 634.5 246.5Q647 288 659.0 325.5Q671 363 677 388L685 386Q631 269 567.0 190.5Q503 112 437.0 66.0Q371 20 309.0 0.0Q247 -20 195 -20Q131 -20 93.0 7.0Q55 34 46.0 87.5Q37 141 60 218L189 654Q213 735 206.5 762.5Q200 790 179 790Q160 790 138.5 773.0Q117 756 86 714Q77 702 74.5 699.0Q72 696 68 696Q64 696 63.5 703.5Q63 711 70 726Q106 806 194.5 861.0Q283 916 425 916Q503 916 538.5 891.5Q574 867 575.5 817.0Q577 767 554 690L437 299Q412 217 419.0 188.0Q426 159 458 159Q479 159 507.5 178.5Q536 198 570.0 240.0Q604 282 639.0 348.0Q674 414 707 506Q723 551 733.5 597.0Q744 643 750.0 682.0Q756 721 756 744Q756 768 746.0 782.5Q736 797 736 818Q736 863 813.0 889.5Q890 916 1034 916Q1120 916 1136.5 886.0Q1153 856 1132 782L978 248Q961 189 963.5 163.5Q966 138 986 138Q1006 138 1030.5 155.5Q1055 173 1098 222Q1104 228 1108.0 231.0Q1112 234 1116 234Z"/>
    <path fill="#f2f2ee" transform="translate(16527 0)" d="M618 893Q586 893 548.5 855.0Q511 817 479.5 743.5Q448 670 431 561Q400 363 450.0 270.0Q500 177 617 177Q669 177 714.0 196.0Q759 215 799.0 256.0Q839 297 873 361Q877 368 881.0 370.5Q885 373 889 371Q894 370 895.5 364.0Q897 358 893 350Q854 260 802.5 190.5Q751 121 687.0 74.5Q623 28 546.0 4.0Q469 -20 380 -20Q197 -20 103.0 100.0Q9 220 46 431Q64 535 113.5 625.0Q163 715 237.5 782.5Q312 850 407.0 888.0Q502 926 610 926Q729 926 806.0 892.0Q883 858 917.5 801.5Q952 745 942 677Q934 618 892.0 591.0Q850 564 801 564Q748 564 712.5 598.0Q677 632 681 692Q683 730 685.5 746.5Q688 763 688 804Q688 841 672.0 867.0Q656 893 618 893Z"/>
    <path fill="#f2f2ee" transform="translate(17487 0)" d="M431 390Q464 482 499.5 548.0Q535 614 569.0 656.0Q603 698 632.5 717.5Q662 737 683 737Q718 737 724.5 708.5Q731 680 706 597L589 206Q566 130 567.5 79.5Q569 29 604.5 4.5Q640 -20 717 -20Q861 -20 949.0 35.5Q1037 91 1073 170Q1080 185 1080.0 192.5Q1080 200 1075 200Q1071 200 1068.5 197.0Q1066 194 1057 182Q1026 140 1005.0 123.0Q984 106 964 106Q943 106 936.5 133.5Q930 161 954 242L1083 678Q1106 754 1097.5 807.0Q1089 860 1051.0 888.0Q1013 916 946 916Q877 916 789.5 879.5Q702 843 614.0 755.0Q526 667 453 510L461 508L686 1313Q697 1353 710.0 1377.0Q723 1401 738.0 1411.5Q753 1422 769 1422Q808 1422 844.5 1390.5Q881 1359 919.0 1317.0Q957 1275 999.0 1243.5Q1041 1212 1091 1212Q1142 1212 1172.0 1242.5Q1202 1273 1202 1316Q1202 1382 1128.5 1426.0Q1055 1470 916 1470Q733 1470 593.5 1401.5Q454 1333 360.0 1204.5Q266 1076 218 896L9 114Q-4 64 -2.0 34.5Q0 5 26.0 -7.5Q52 -20 112 -20Q259 -20 336.5 6.5Q414 33 414 78Q414 99 404.0 113.5Q394 128 394 152Q394 172 396.5 211.0Q399 250 407.0 297.5Q415 345 431 390Z"/>
    <path fill="#f2f2ee" transform="translate(18923 0)" d="M347 5Q388 5 417.0 42.0Q446 79 447 134Q448 171 433.5 200.5Q419 230 388.0 259.5Q357 289 309 324Q243 373 197.0 418.0Q151 463 129.5 510.0Q108 557 113 613Q121 694 174.0 765.5Q227 837 323.5 881.5Q420 926 557 926Q673 926 749.0 897.0Q825 868 863.5 822.5Q902 777 904 726Q906 667 877.0 631.0Q848 595 802 595Q744 595 706.0 636.5Q668 678 645 786Q631 852 606.0 877.0Q581 902 541 902Q499 902 472.5 867.0Q446 832 445 772Q444 731 460.5 694.5Q477 658 520.0 617.0Q563 576 641 518Q704 472 742.5 431.0Q781 390 796.0 347.5Q811 305 801 253Q787 175 725.5 113.5Q664 52 565.0 16.0Q466 -20 337 -20Q212 -20 134.5 11.5Q57 43 22.0 93.0Q-13 143 -13 198Q-13 250 12.5 286.0Q38 322 87 322Q150 322 184.0 277.5Q218 233 240 130Q254 61 277.5 33.0Q301 5 347 5Z"/>
    <path fill="#f2f2ee" transform="translate(19819 0)" d="M195 861 133 872Q126 874 123.5 877.5Q121 881 121 885Q121 890 125.0 893.0Q129 896 135 896H236Q244 896 250.0 898.0Q256 900 266 906L617 1114Q622 1117 628.0 1119.5Q634 1122 641 1122Q646 1122 648.5 1118.0Q651 1114 651 1108Q651 1105 650.0 1099.0Q649 1093 647 1084L416 242Q394 163 405.5 134.5Q417 106 443 106Q472 106 503.0 130.0Q534 154 570 206Q578 218 581.0 221.0Q584 224 588 224Q593 224 593.5 216.5Q594 209 586 194Q565 150 528.5 111.0Q492 72 442.5 42.5Q393 13 332.0 -3.5Q271 -20 200 -20Q123 -20 83.0 4.0Q43 28 36.0 78.5Q29 129 51 206L218 806Q225 832 219.5 845.0Q214 858 195 861ZM525 872 539 896H732Q747 896 747 885Q747 878 741.5 875.0Q736 872 727 872Z"/>
    <path fill="#f2f2ee" transform="translate(20473 0)" d="M427 242Q403 161 409.5 133.5Q416 106 437 106Q457 106 478.0 123.0Q499 140 530 182Q539 194 541.5 197.0Q544 200 548 200Q553 200 553.0 192.5Q553 185 546 170Q510 91 421.0 35.5Q332 -20 189 -20Q111 -20 75.5 4.5Q40 29 38.5 79.5Q37 130 60 206L194 648Q212 707 209.0 732.5Q206 758 186 758Q167 758 142.5 741.0Q118 724 74 674Q68 668 64.5 665.0Q61 662 56 662Q52 662 53.0 666.5Q54 671 58 678Q119 782 215.5 849.0Q312 916 423 916Q487 916 525.0 889.0Q563 862 572.5 809.0Q582 756 558 678ZM426 992Q354 992 313.0 1028.5Q272 1065 272 1122Q272 1174 302.5 1223.0Q333 1272 387.5 1304.0Q442 1336 515 1336Q604 1336 643.5 1299.5Q683 1263 683 1207Q683 1148 653.5 1099.0Q624 1050 567.0 1021.0Q510 992 426 992Z"/>
    <path fill="#f2f2ee" transform="translate(21088 0)" d="M618 893Q586 893 548.5 855.0Q511 817 479.5 743.5Q448 670 431 561Q400 363 450.0 270.0Q500 177 617 177Q669 177 714.0 196.0Q759 215 799.0 256.0Q839 297 873 361Q877 368 881.0 370.5Q885 373 889 371Q894 370 895.5 364.0Q897 358 893 350Q854 260 802.5 190.5Q751 121 687.0 74.5Q623 28 546.0 4.0Q469 -20 380 -20Q197 -20 103.0 100.0Q9 220 46 431Q64 535 113.5 625.0Q163 715 237.5 782.5Q312 850 407.0 888.0Q502 926 610 926Q729 926 806.0 892.0Q883 858 917.5 801.5Q952 745 942 677Q934 618 892.0 591.0Q850 564 801 564Q748 564 712.5 598.0Q677 632 681 692Q683 730 685.5 746.5Q688 763 688 804Q688 841 672.0 867.0Q656 893 618 893Z"/>
    <path fill="#f2f2ee" transform="translate(22048 0)" d="M478 551Q488 598 504.0 659.5Q520 721 544.5 807.5Q569 894 603.5 1015.5Q638 1137 684 1304Q695 1345 708.0 1371.0Q721 1397 737.0 1409.5Q753 1422 771 1422Q809 1422 845.5 1390.5Q882 1359 919.5 1317.0Q957 1275 999.5 1243.5Q1042 1212 1092 1212Q1144 1212 1173.5 1242.5Q1203 1273 1203 1316Q1203 1382 1129.5 1426.0Q1056 1470 917 1470Q732 1470 593.0 1401.0Q454 1332 360.5 1203.5Q267 1075 219 897L10 114Q-3 64 -1.0 34.5Q1 5 27.5 -7.5Q54 -20 114 -20Q212 -20 279.0 -8.0Q346 4 380.5 26.0Q415 48 415 78Q415 99 405.0 114.0Q395 129 395 152Q395 177 397.0 207.0Q399 237 405.0 275.5Q411 314 423 362Q451 470 489.0 552.5Q527 635 570.0 691.5Q613 748 656.0 777.0Q699 806 736 806Q765 806 783.5 776.5Q802 747 793 694Q777 599 727.5 532.0Q678 465 595.5 425.0Q513 385 398 371L401 350Q657 386 812.0 434.0Q967 482 1041.5 547.5Q1116 613 1128 701Q1144 811 1082.5 863.5Q1021 916 931 916Q856 916 787.0 889.5Q718 863 658.0 814.5Q598 766 550.0 699.5Q502 633 469 553ZM509 375 558 146Q576 61 624.5 20.5Q673 -20 749 -20Q822 -20 880.5 2.5Q939 25 986.5 75.0Q1034 125 1073 210Q1075 215 1074.0 218.5Q1073 222 1070 223Q1067 225 1063.5 223.5Q1060 222 1058 219Q1025 175 1006.0 159.5Q987 144 961 144Q937 144 919.0 162.0Q901 180 890 215L810 465Z"/>
    <path fill="#f2f2ee" transform="translate(23176 0)" d="M347 5Q388 5 417.0 42.0Q446 79 447 134Q448 171 433.5 200.5Q419 230 388.0 259.5Q357 289 309 324Q243 373 197.0 418.0Q151 463 129.5 510.0Q108 557 113 613Q121 694 174.0 765.5Q227 837 323.5 881.5Q420 926 557 926Q673 926 749.0 897.0Q825 868 863.5 822.5Q902 777 904 726Q906 667 877.0 631.0Q848 595 802 595Q744 595 706.0 636.5Q668 678 645 786Q631 852 606.0 877.0Q581 902 541 902Q499 902 472.5 867.0Q446 832 445 772Q444 731 460.5 694.5Q477 658 520.0 617.0Q563 576 641 518Q704 472 742.5 431.0Q781 390 796.0 347.5Q811 305 801 253Q787 175 725.5 113.5Q664 52 565.0 16.0Q466 -20 337 -20Q212 -20 134.5 11.5Q57 43 22.0 93.0Q-13 143 -13 198Q-13 250 12.5 286.0Q38 322 87 322Q150 322 184.0 277.5Q218 233 240 130Q254 61 277.5 33.0Q301 5 347 5Z"/>
    <path fill="#f2f2ee" transform="translate(24072 0)" d="M184 -20Q107 -20 63.5 21.0Q20 62 20 126Q20 186 52.5 236.0Q85 286 144.5 316.0Q204 346 283 346Q365 346 408.0 304.0Q451 262 451 199Q451 145 420.5 94.5Q390 44 331.0 12.0Q272 -20 184 -20Z"/>
  </g>
  <rect x="80" y="520" width="88" height="1" fill="#b4ff39" opacity="0.5"/>
  <g transform="translate(104 560)">
    <circle cx="0" cy="0" r="22" fill="none" stroke="#b4ff39" stroke-width="1.2" opacity="0.55"/>
    <circle cx="0" cy="0" r="14.5" fill="none" stroke="#b4ff39" stroke-width="1.6"/>
    <circle cx="0" cy="0" r="4.5" fill="#b4ff39"/>
  </g>
  <g transform="translate(134 568) scale(0.022 -0.022)">
    <path fill="#f2f2ee" transform="translate(0 0)" d="M1444 957Q1431 847 1377.5 757.5Q1324 668 1236.5 604.0Q1149 540 1032.0 506.0Q915 472 773 472Q674 472 628.0 487.0Q582 502 545 519L551 540Q600 516 640.5 510.5Q681 505 713 505Q793 505 861.5 553.5Q930 602 982.5 705.5Q1035 809 1067 975Q1095 1121 1082.0 1209.0Q1069 1297 1031.5 1336.5Q994 1376 947 1376Q904 1376 876.5 1354.5Q849 1333 834 1288Q830 1276 811.5 1206.5Q793 1137 765.0 1030.5Q737 924 704.0 799.5Q671 675 639.0 550.5Q607 426 579.5 320.0Q552 214 534.5 145.0Q517 76 514 64Q511 54 516.0 44.5Q521 35 536 33L678 20Q687 19 691.5 16.5Q696 14 696 10Q696 5 692.0 2.5Q688 0 680 0H-28Q-34 0 -37.0 1.5Q-40 3 -40 7Q-40 11 -37.0 13.5Q-34 16 -27 17L52 28Q70 30 80.0 43.5Q90 57 96 76Q99 87 118.0 158.0Q137 229 166.5 338.5Q196 448 231.0 577.0Q266 706 300.5 834.5Q335 963 364.0 1071.5Q393 1180 411.0 1248.5Q429 1317 431 1325Q436 1347 428.5 1358.0Q421 1369 398 1372L324 1382Q316 1383 313.5 1385.5Q311 1388 311 1392Q311 1396 314.5 1398.0Q318 1400 325 1400H1023Q1128 1400 1211.0 1368.0Q1294 1336 1350.0 1277.0Q1406 1218 1431.0 1136.5Q1456 1055 1444 957Z"/>
    <path fill="#f2f2ee" transform="translate(1370 0)" d="M1116 234Q1121 234 1120.0 229.0Q1119 224 1114 218Q1053 114 950.0 47.0Q847 -20 737 -20Q670 -20 637.0 8.0Q604 36 604 90Q604 123 613.0 164.0Q622 205 634.5 246.5Q647 288 659.0 325.5Q671 363 677 388L685 386Q631 269 567.0 190.5Q503 112 437.0 66.0Q371 20 309.0 0.0Q247 -20 195 -20Q131 -20 93.0 7.0Q55 34 46.0 87.5Q37 141 60 218L189 654Q213 735 206.5 762.5Q200 790 179 790Q160 790 138.5 773.0Q117 756 86 714Q77 702 74.5 699.0Q72 696 68 696Q64 696 63.5 703.5Q63 711 70 726Q106 806 194.5 861.0Q283 916 425 916Q503 916 538.5 891.5Q574 867 575.5 817.0Q577 767 554 690L437 299Q412 217 419.0 188.0Q426 159 458 159Q479 159 507.5 178.5Q536 198 570.0 240.0Q604 282 639.0 348.0Q674 414 707 506Q723 551 733.5 597.0Q744 643 750.0 682.0Q756 721 756 744Q756 768 746.0 782.5Q736 797 736 818Q736 863 813.0 889.5Q890 916 1034 916Q1120 916 1136.5 886.0Q1153 856 1132 782L978 248Q961 189 963.5 163.5Q966 138 986 138Q1006 138 1030.5 155.5Q1055 173 1098 222Q1104 228 1108.0 231.0Q1112 234 1116 234Z"/>
    <path fill="#f2f2ee" transform="translate(2527 0)" d="M658 1470Q754 1470 802.5 1434.0Q851 1398 851 1348Q851 1305 820.5 1276.0Q790 1247 737 1247Q699 1247 658.0 1264.0Q617 1281 577.0 1304.0Q537 1327 503.0 1344.0Q469 1361 445 1361Q431 1361 420.5 1354.5Q410 1348 404.0 1336.5Q398 1325 398 1310Q398 1280 422.0 1252.0Q446 1224 478.5 1190.0Q511 1156 538.5 1108.5Q566 1061 575.0 994.5Q584 928 558 833L398 242Q376 160 381.5 133.0Q387 106 408 106Q428 106 449.0 123.0Q470 140 501 182Q510 194 512.5 197.0Q515 200 519 200Q524 200 524.0 192.5Q524 185 517 170Q493 117 445.0 74.0Q397 31 327.5 5.5Q258 -20 171 -20Q94 -20 57.5 6.5Q21 33 16.5 83.5Q12 134 32 206L299 1179Q343 1337 434.0 1403.5Q525 1470 658 1470Z"/>
    <path fill="#f2f2ee" transform="translate(3117 0)" d="M347 5Q388 5 417.0 42.0Q446 79 447 134Q448 171 433.5 200.5Q419 230 388.0 259.5Q357 289 309 324Q243 373 197.0 418.0Q151 463 129.5 510.0Q108 557 113 613Q121 694 174.0 765.5Q227 837 323.5 881.5Q420 926 557 926Q673 926 749.0 897.0Q825 868 863.5 822.5Q902 777 904 726Q906 667 877.0 631.0Q848 595 802 595Q744 595 706.0 636.5Q668 678 645 786Q631 852 606.0 877.0Q581 902 541 902Q499 902 472.5 867.0Q446 832 445 772Q444 731 460.5 694.5Q477 658 520.0 617.0Q563 576 641 518Q704 472 742.5 431.0Q781 390 796.0 347.5Q811 305 801 253Q787 175 725.5 113.5Q664 52 565.0 16.0Q466 -20 337 -20Q212 -20 134.5 11.5Q57 43 22.0 93.0Q-13 143 -13 198Q-13 250 12.5 286.0Q38 322 87 322Q150 322 184.0 277.5Q218 233 240 130Q254 61 277.5 33.0Q301 5 347 5Z"/>
    <path fill="#f2f2ee" transform="translate(4013 0)" d="M221 418Q221 418 252.0 426.5Q283 435 333.0 449.0Q383 463 440.5 479.5Q498 496 552.5 511.5Q607 527 646 538L612 513Q630 557 642.5 622.0Q655 687 656 770Q657 829 644.0 861.5Q631 894 604 894Q576 894 548.0 868.0Q520 842 495.0 791.5Q470 741 450.0 668.5Q430 596 418 503Q398 348 446.5 262.5Q495 177 622 177Q673 177 719.0 197.0Q765 217 805.5 258.0Q846 299 881 361Q886 368 890.0 370.5Q894 373 898 371Q903 370 904.0 364.0Q905 358 901 350Q847 230 770.5 147.5Q694 65 595.0 22.5Q496 -20 375 -20Q259 -20 178.0 27.5Q97 75 60.5 167.5Q24 260 40 394Q54 505 101.0 602.0Q148 699 223.0 771.5Q298 844 396.5 885.0Q495 926 611 926Q722 926 792.0 887.5Q862 849 894.0 787.0Q926 725 922 654Q921 641 926.5 632.0Q932 623 951 619Q959 618 961.0 615.5Q963 613 963 610Q963 608 961.0 605.0Q959 602 951 600Q931 595 871.0 578.5Q811 562 729.5 538.5Q648 515 561.0 490.5Q474 466 399.0 444.5Q324 423 277.5 409.5Q231 396 231 396Z"/>
  </g>
  <g transform="translate(250.01 568) scale(0.022 -0.022)">
    <path fill="#b4ff39" transform="translate(0 0)" d="M514 64Q511 52 517.5 42.0Q524 32 545 29L618 19Q628 18 632.0 15.5Q636 13 636 9Q636 5 632.0 2.5Q628 0 620 0H-28Q-34 0 -37.0 1.5Q-40 3 -40 7Q-40 11 -37.0 13.5Q-34 16 -27 17L52 28Q68 30 78.5 42.0Q89 54 96 76Q99 87 118.0 158.0Q137 229 167.0 339.0Q197 449 231.5 578.5Q266 708 300.5 837.0Q335 966 364.5 1074.5Q394 1183 412.0 1252.0Q430 1321 432 1328Q435 1348 428.0 1358.5Q421 1369 398 1372L324 1382Q316 1383 313.5 1385.5Q311 1388 311 1392Q311 1396 314.5 1398.0Q318 1400 325 1400H965Q972 1400 974.5 1398.0Q977 1396 977 1393Q977 1390 974.5 1387.0Q972 1384 964 1383L885 1372Q870 1370 861.0 1360.0Q852 1350 842 1324Q840 1318 821.5 1249.5Q803 1181 774.5 1072.5Q746 964 712.5 834.5Q679 705 645.0 574.5Q611 444 582.5 332.5Q554 221 535.5 148.5Q517 76 514 64ZM492 668H1206L1202 644H488ZM1288 64Q1285 52 1291.5 42.0Q1298 32 1319 29L1392 19Q1402 18 1406.0 15.5Q1410 13 1410 9Q1410 5 1406.0 2.5Q1402 0 1394 0H746Q740 0 737.0 1.5Q734 3 734 7Q734 11 737.0 13.5Q740 16 747 17L826 28Q842 30 852.5 42.0Q863 54 870 76Q873 87 892.0 158.0Q911 229 941.0 339.0Q971 449 1005.5 578.5Q1040 708 1074.5 837.0Q1109 966 1138.5 1074.5Q1168 1183 1186.0 1252.0Q1204 1321 1206 1328Q1209 1348 1202.0 1358.5Q1195 1369 1172 1372L1098 1382Q1090 1383 1087.5 1385.5Q1085 1388 1085 1392Q1085 1396 1088.5 1398.0Q1092 1400 1099 1400H1739Q1746 1400 1748.5 1398.0Q1751 1396 1751 1393Q1751 1390 1748.5 1387.0Q1746 1384 1738 1383L1659 1372Q1644 1370 1635.0 1360.0Q1626 1350 1616 1324Q1614 1318 1595.5 1249.5Q1577 1181 1548.5 1072.5Q1520 964 1486.5 834.5Q1453 705 1419.0 574.5Q1385 444 1356.5 332.5Q1328 221 1309.5 148.5Q1291 76 1288 64Z"/>
    <path fill="#b4ff39" transform="translate(1592 0)" d="M550 606 556 627Q611 600 656.5 592.5Q702 585 738 585Q814 585 880.0 629.0Q946 673 996.0 768.0Q1046 863 1072 1015Q1095 1147 1082.0 1226.0Q1069 1305 1032.5 1340.5Q996 1376 947 1376Q904 1376 876.5 1354.5Q849 1333 834 1288Q830 1276 811.5 1206.5Q793 1137 765.0 1030.5Q737 924 704.0 799.5Q671 675 639.0 550.5Q607 426 579.5 320.0Q552 214 534.5 145.0Q517 76 514 64Q511 52 517.5 42.0Q524 32 545 29L618 19Q628 18 632.0 15.5Q636 13 636 9Q636 5 632.0 2.5Q628 0 620 0H-28Q-34 0 -37.0 1.5Q-40 3 -40 7Q-40 11 -37.0 13.5Q-34 16 -27 17L52 28Q70 30 80.0 43.5Q90 57 96 76Q99 87 118.0 158.0Q137 229 166.5 338.5Q196 448 231.0 577.0Q266 706 300.5 834.5Q335 963 364.0 1071.5Q393 1180 411.0 1248.5Q429 1317 431 1325Q436 1347 428.5 1358.0Q421 1369 398 1372L324 1382Q316 1383 313.5 1385.5Q311 1388 311 1392Q311 1396 314.5 1398.0Q318 1400 325 1400H1023Q1164 1400 1265.0 1349.0Q1366 1298 1415.0 1207.5Q1464 1117 1449 997Q1433 862 1346.5 762.0Q1260 662 1117.0 607.0Q974 552 788 552Q685 552 637.0 570.0Q589 588 550 606ZM730 558 1102 614 1238 212Q1246 188 1257.0 173.0Q1268 158 1281.5 151.0Q1295 144 1309 144Q1332 144 1354.0 159.0Q1376 174 1400 213Q1404 219 1407.0 221.5Q1410 224 1413 222Q1416 221 1415.5 218.0Q1415 215 1413 210Q1355 94 1253.0 32.0Q1151 -30 1031 -30Q977 -30 937.5 -13.5Q898 3 872.5 36.0Q847 69 835 118Z"/>
  </g>
</svg>
