<svg xmlns="http://www.w3.org/2000/svg" viewBox="0 0 1200 630" width="1200" height="630" role="img" aria-label="Your best work is buried in a Slack thread from March. — Pulse HR">
  <rect width="1200" height="630" fill="#0b0b0d"/>
  <g transform="translate(80.00 150) scale(0.04619990342829551 -0.04619990342829551)">
    <path fill="#f2f2ee" transform="translate(0 0)" d="M776 446 1165 1215Q1210 1304 1245.0 1352.5Q1280 1401 1314.0 1420.5Q1348 1440 1389 1440Q1435 1440 1464.0 1413.0Q1493 1386 1493 1342Q1493 1284 1443.0 1240.0Q1393 1196 1293 1151Q1237 1126 1192.5 1097.0Q1148 1068 1114.5 1031.5Q1081 995 1055 944L813 466Q801 442 794.0 425.0Q787 408 784 394L702 64Q699 51 706.5 41.5Q714 32 733 29L806 19Q816 18 820.0 15.5Q824 13 824 9Q824 5 820.0 2.5Q816 0 808 0H160Q154 0 151.0 1.5Q148 3 148 7Q148 16 161 17L240 28Q263 31 271.5 45.5Q280 60 284 76L374 411Q381 437 381.5 461.0Q382 485 380 512Q379 528 374.0 590.5Q369 653 362.0 742.5Q355 832 347.0 929.0Q339 1026 332.0 1112.5Q325 1199 320.0 1257.0Q315 1315 314 1323Q310 1352 297.5 1362.5Q285 1373 223 1381Q213 1383 209.0 1385.0Q205 1387 205 1392Q205 1396 208.5 1398.0Q212 1400 219 1400H665Q686 1400 697.0 1389.0Q708 1378 709 1358Q710 1349 715.5 1285.5Q721 1222 729.5 1127.0Q738 1032 747.0 925.5Q756 819 765.0 720.0Q774 621 780.0 550.5Q786 480 788 460Z"/>
    <path fill="#f2f2ee" transform="translate(1183 0)" d="M610 926Q743 926 839.5 874.0Q936 822 985.0 727.5Q1034 633 1021 507Q1010 398 967.0 302.5Q924 207 849.5 134.5Q775 62 669.5 21.0Q564 -20 428 -20Q304 -20 209.5 32.0Q115 84 66.5 178.5Q18 273 30 398Q42 511 86.0 607.0Q130 703 204.5 774.5Q279 846 381.0 886.0Q483 926 610 926ZM428 17Q459 17 493.5 70.5Q528 124 561.0 211.0Q594 298 621.0 400.5Q648 503 665.0 603.5Q682 704 683 783Q684 826 676.0 849.0Q668 872 654.5 880.5Q641 889 623 889Q591 889 556.5 835.5Q522 782 489.0 695.0Q456 608 429.0 505.5Q402 403 386.0 302.5Q370 202 368 123Q368 80 375.0 57.0Q382 34 396.0 25.5Q410 17 428 17Z"/>
    <path fill="#f2f2ee" transform="translate(2233 0)" d="M1116 234Q1121 234 1120.0 229.0Q1119 224 1114 218Q1053 114 950.0 47.0Q847 -20 737 -20Q670 -20 637.0 8.0Q604 36 604 90Q604 123 613.0 164.0Q622 205 634.5 246.5Q647 288 659.0 325.5Q671 363 677 388L685 386Q631 269 567.0 190.5Q503 112 437.0 66.0Q371 20 309.0 0.0Q247 -20 195 -20Q131 -20 93.0 7.0Q55 34 46.0 87.5Q37 141 60 218L189 654Q213 735 206.5 762.5Q200 790 179 790Q160 790 138.5 773.0Q117 756 86 714Q77 702 74.5 699.0Q72 696 68 696Q64 696 63.5 703.5Q63 711 70 726Q106 806 194.5 861.0Q283 916 425 916Q503 916 538.5 891.5Q574 867 575.5 817.0Q577 767 554 690L437 299Q412 217 419.0 188.0Q426 159 458 159Q479 159 507.5 178.5Q536 198 570.0 240.0Q604 282 639.0 348.0Q674 414 707 506Q723 551 733.5 597.0Q744 643 750.0 682.0Q756 721 756 744Q756 768 746.0 782.5Q736 797 736 818Q736 863 813.0 889.5Q890 916 1034 916Q1120 916 1136.5 886.0Q1153 856 1132 782L978 248Q961 189 963.5 163.5Q966 138 986 138Q1006 138 1030.5 155.5Q1055 173 1098 222Q1104 228 1108.0 231.0Q1112 234 1116 234Z"/>
    <path fill="#f2f2ee" transform="translate(3390 0)" d="M48 662Q45 662 45.0 665.5Q45 669 50 678Q91 748 151.0 801.5Q211 855 282.5 885.5Q354 916 427 916Q498 916 529.0 886.5Q560 857 560 810Q560 762 546.5 713.5Q533 665 513.5 615.0Q494 565 476.0 511.5Q458 458 448 400L434 405Q471 529 517.0 624.0Q563 719 616.0 784.0Q669 849 727.0 882.5Q785 916 846 916Q922 916 955.0 855.0Q988 794 974 708Q963 641 935.0 596.0Q907 551 866.5 528.0Q826 505 777 505Q724 505 691.5 530.5Q659 556 659 610Q659 635 664.5 659.0Q670 683 670 703Q670 722 663.5 731.5Q657 741 643 741Q621 741 591.0 704.5Q561 668 529.0 597.5Q497 527 469 424Q447 345 432.5 287.0Q418 229 418 198Q418 167 435.5 150.5Q453 134 470.5 124.5Q488 115 488 103Q488 85 439.5 55.5Q391 26 311.0 3.0Q231 -20 138 -20Q83 -20 57.0 -0.5Q31 19 28.0 54.0Q25 89 38 136L186 648Q203 707 200.5 732.5Q198 758 178 758Q159 758 134.5 741.0Q110 724 66 674Q60 667 56.0 664.5Q52 662 48 662Z"/>
    <path fill="#f2f2ee" transform="translate(4622 0)" d="M697 1313 448 505 430 506Q477 661 542.5 750.5Q608 840 681.0 878.0Q754 916 823 916Q945 916 1008.5 835.5Q1072 755 1072 627Q1072 506 1030.0 390.5Q988 275 915.0 182.0Q842 89 747.5 34.5Q653 -20 548 -20Q471 -20 414.0 17.5Q357 55 357 158L381 124L13 -10Q9 -11 2.5 -13.5Q-4 -16 -9 -16Q-15 -16 -12.5 -5.0Q-10 6 -1 40L229 897Q277 1077 371.0 1205.0Q465 1333 604.0 1401.5Q743 1470 926 1470Q1066 1470 1139.5 1426.0Q1213 1382 1213 1316Q1213 1273 1183.5 1242.5Q1154 1212 1102 1212Q1052 1212 1009.5 1243.5Q967 1275 929.5 1317.0Q892 1359 855.5 1390.5Q819 1422 780 1422Q755 1422 735.0 1397.0Q715 1372 697 1313ZM639 786Q605 779 572.5 738.0Q540 697 510.5 631.5Q481 566 457.0 486.0Q433 406 416.0 321.0Q399 236 392 156Q387 98 409.5 65.0Q432 32 458 32Q491 32 525.0 78.0Q559 124 590.5 198.0Q622 272 646.5 359.0Q671 446 685.5 530.0Q700 614 700 677Q700 716 694.0 741.5Q688 767 674.5 779.0Q661 791 639 786Z"/>
    <path fill="#f2f2ee" transform="translate(5721 0)" d="M221 418Q221 418 252.0 426.5Q283 435 333.0 449.0Q383 463 440.5 479.5Q498 496 552.5 511.5Q607 527 646 538L612 513Q630 557 642.5 622.0Q655 687 656 770Q657 829 644.0 861.5Q631 894 604 894Q576 894 548.0 868.0Q520 842 495.0 791.5Q470 741 450.0 668.5Q430 596 418 503Q398 348 446.5 262.5Q495 177 622 177Q673 177 719.0 197.0Q765 217 805.5 258.0Q846 299 881 361Q886 368 890.0 370.5Q894 373 898 371Q903 370 904.0 364.0Q905 358 901 350Q847 230 770.5 147.5Q694 65 595.0 22.5Q496 -20 375 -20Q259 -20 178.0 27.5Q97 75 60.5 167.5Q24 260 40 394Q54 505 101.0 602.0Q148 699 223.0 771.5Q298 844 396.5 885.0Q495 926 611 926Q722 926 792.0 887.5Q862 849 894.0 787.0Q926 725 922 654Q921 641 926.5 632.0Q932 623 951 619Q959 618 961.0 615.5Q963 613 963 610Q963 608 961.0 605.0Q959 602 951 600Q931 595 871.0 578.5Q811 562 729.5 538.5Q648 515 561.0 490.5Q474 466 399.0 444.5Q324 423 277.5 409.5Q231 396 231 396Z"/>
    <path fill="#f2f2ee" transform="translate(6681 0)" d="M347 5Q388 5 417.0 42.0Q446 79 447 134Q448 171 433.5 200.5Q419 230 388.0 259.5Q357 289 309 324Q243 373 197.0 418.0Q151 463 129.5 510.0Q108 557 113 613Q121 694 174.0 765.5Q227 837 323.5 881.5Q420 926 557 926Q673 926 749.0 897.0Q825 868 863.5 822.5Q902 777 904 726Q906 667 877.0 631.0Q848 595 802 595Q744 595 706.0 636.5Q668 678 645 786Q631 852 606.0 877.0Q581 902 541 902Q499 902 472.5 867.0Q446 832 445 772Q444 731 460.5 694.5Q477 658 520.0 617.0Q563 576 641 518Q704 472 742.5 431.0Q781 390 796.0 347.5Q811 305 801 253Q787 175 725.5 113.5Q664 52 565.0 16.0Q466 -20 337 -20Q212 -20 134.5 11.5Q57 43 22.0 93.0Q-13 143 -13 198Q-13 250 12.5 286.0Q38 322 87 322Q150 322 184.0 277.5Q218 233 240 130Q254 61 277.5 33.0Q301 5 347 5Z"/>
    <path fill="#f2f2ee" transform="translate(7577 0)" d="M195 861 133 872Q126 874 123.5 877.5Q121 881 121 885Q121 890 125.0 893.0Q129 896 135 896H236Q244 896 250.0 898.0Q256 900 266 906L617 1114Q622 1117 628.0 1119.5Q634 1122 641 1122Q646 1122 648.5 1118.0Q651 1114 651 1108Q651 1105 650.0 1099.0Q649 1093 647 1084L416 242Q394 163 405.5 134.5Q417 106 443 106Q472 106 503.0 130.0Q534 154 570 206Q578 218 581.0 221.0Q584 224 588 224Q593 224 593.5 216.5Q594 209 586 194Q565 150 528.5 111.0Q492 72 442.5 42.5Q393 13 332.0 -3.5Q271 -20 200 -20Q123 -20 83.0 4.0Q43 28 36.0 78.5Q29 129 51 206L218 806Q225 832 219.5 845.0Q214 858 195 861ZM525 872 539 896H732Q747 896 747 885Q747 878 741.5 875.0Q736 872 727 872Z"/>
    <path fill="#f2f2ee" transform="translate(8531 0)" d="M1087 915Q1168 911 1191.5 843.5Q1215 776 1176 662Q1117 490 1037.0 362.0Q957 234 856.5 149.0Q756 64 637.5 22.0Q519 -20 382 -20Q277 -20 214.5 24.5Q152 69 152 149Q152 233 197.0 294.0Q242 355 309.5 400.0Q377 445 446.0 481.0Q515 517 564.0 550.0Q613 583 620 620L627 606Q550 606 481.0 629.0Q412 652 352.5 682.5Q293 713 244.0 738.0Q195 763 158 767Q124 771 109.0 756.5Q94 742 89 723Q76 664 172 636Q238 617 272.5 589.0Q307 561 302 516Q298 476 266.5 453.0Q235 430 191 430Q113 430 66.0 490.0Q19 550 36 641Q51 721 99.5 783.0Q148 845 220.5 880.5Q293 916 380 916Q428 916 481.0 909.5Q534 903 581.0 896.5Q628 890 658 890Q667 890 673.0 895.0Q679 900 684.0 904.5Q689 909 693 909Q698 909 700.0 904.0Q702 899 702 889Q702 838 691.0 775.5Q680 713 664.5 645.0Q649 577 633.0 509.5Q617 442 606.0 381.5Q595 321 595 273Q595 191 627.5 151.0Q660 111 719 111Q776 111 841.0 156.5Q906 202 970.0 286.0Q1034 370 1088.5 487.0Q1143 604 1177 747Q1138 554 1126.0 429.5Q1114 305 1123.5 235.5Q1133 166 1161.0 138.0Q1189 110 1229 110Q1264 110 1302.0 139.0Q1340 168 1375.0 218.0Q1410 268 1437.5 330.5Q1465 393 1480 460Q1487 493 1473.0 513.0Q1459 533 1434.5 547.5Q1410 562 1383 576Q1317 613 1294.5 650.5Q1272 688 1277 742Q1281 785 1303.0 824.5Q1325 864 1359.0 890.0Q1393 916 1434 916Q1500 916 1532.5 861.5Q1565 807 1565 711Q1565 590 1524.0 462.0Q1483 334 1409.5 224.5Q1336 115 1238.0 47.5Q1140 -20 1026 -20Q926 -20 865.0 27.5Q804 75 779.0 161.0Q754 247 763.5 362.0Q773 477 815 612Q859 754 933.5 836.5Q1008 919 1087 915Z"/>
    <path fill="#f2f2ee" transform="translate(10117 0)" d="M610 926Q743 926 839.5 874.0Q936 822 985.0 727.5Q1034 633 1021 507Q1010 398 967.0 302.5Q924 207 849.5 134.5Q775 62 669.5 21.0Q564 -20 428 -20Q304 -20 209.5 32.0Q115 84 66.5 178.5Q18 273 30 398Q42 511 86.0 607.0Q130 703 204.5 774.5Q279 846 381.0 886.0Q483 926 610 926ZM428 17Q459 17 493.5 70.5Q528 124 561.0 211.0Q594 298 621.0 400.5Q648 503 665.0 603.5Q682 704 683 783Q684 826 676.0 849.0Q668 872 654.5 880.5Q641 889 623 889Q591 889 556.5 835.5Q522 782 489.0 695.0Q456 608 429.0 505.5Q402 403 386.0 302.5Q370 202 368 123Q368 80 375.0 57.0Q382 34 396.0 25.5Q410 17 428 17Z"/>
    <path fill="#f2f2ee" transform="translate(11167 0)" d="M48 662Q45 662 45.0 665.5Q45 669 50 678Q91 748 151.0 801.5Q211 855 282.5 885.5Q354 916 427 916Q498 916 529.0 886.5Q560 857 560 810Q560 762 546.5 713.5Q533 665 513.5 615.0Q494 565 476.0 511.5Q458 458 448 400L434 405Q471 529 517.0 624.0Q563 719 616.0 784.0Q669 849 727.0 882.5Q785 916 846 916Q922 916 955.0 855.0Q988 794 974 708Q963 641 935.0 596.0Q907 551 866.5 528.0Q826 505 777 505Q724 505 691.5 530.5Q659 556 659 610Q659 635 664.5 659.0Q670 683 670 703Q670 722 663.5 731.5Q657 741 643 741Q621 741 591.0 704.5Q561 668 529.0 597.5Q497 527 469 424Q447 345 432.5 287.0Q418 229 418 198Q418 167 435.5 150.5Q453 134 470.5 124.5Q488 115 488 103Q488 85 439.5 55.5Q391 26 311.0 3.0Q231 -20 138 -20Q83 -20 57.0 -0.5Q31 19 28.0 54.0Q25 89 38 136L186 648Q203 707 200.5 732.5Q198 758 178 758Q159 758 134.5 741.0Q110 724 66 674Q60 667 56.0 664.5Q52 662 48 662Z"/>
    <path fill="#f2f2ee" transform="translate(12099 0)" d="M478 551Q488 598 504.0 659.5Q520 721 544.5 807.5Q569 894 603.5 1015.5Q638 1137 684 1304Q695 1345 708.0 1371.0Q721 1397 737.0 1409.5Q753 1422 771 1422Q809 1422 845.5 1390.5Q882 1359 919.5 1317.0Q957 1275 999.5 1243.5Q1042 1212 1092 1212Q1144 1212 1173.5 1242.5Q1203 1273 1203 1316Q1203 1382 1129.5 1426.0Q1056 1470 917 1470Q732 1470 593.0 1401.0Q454 1332 360.5 1203.5Q267 1075 219 897L10 114Q-3 64 -1.0 34.5Q1 5 27.5 -7.5Q54 -20 114 -20Q212 -20 279.0 -8.0Q346 4 380.5 26.0Q415 48 415 78Q415 99 405.0 114.0Q395 129 395 152Q395 177 397.0 207.0Q399 237 405.0 275.5Q411 314 423 362Q451 470 489.0 552.5Q527 635 570.0 691.5Q613 748 656.0 777.0Q699 806 736 806Q765 806 783.5 776.5Q802 747 793 694Q777 599 727.5 532.0Q678 465 595.5 425.0Q513 385 398 371L401 350Q657 386 812.0 434.0Q967 482 1041.5 547.5Q1116 613 1128 701Q1144 811 1082.5 863.5Q1021 916 931 916Q856 916 787.0 889.5Q718 863 658.0 814.5Q598 766 550.0 699.5Q502 633 469 553ZM509 375 558 146Q576 61 624.5 20.5Q673 -20 749 -20Q822 -20 880.5 2.5Q939 25 986.5 75.0Q1034 125 1073 210Q1075 215 1074.0 218.5Q1073 222 1070 223Q1067 225 1063.5 223.5Q1060 222 1058 219Q1025 175 1006.0 159.5Q987 144 961 144Q937 144 919.0 162.0Q901 180 890 215L810 465Z"/>
    <path fill="#f2f2ee" transform="translate(13527 0)" d="M427 242Q403 161 409.5 133.5Q416 106 437 106Q457 106 478.0 123.0Q499 140 530 182Q539 194 541.5 197.0Q544 200 548 200Q553 200 553.0 192.5Q553 185 546 170Q510 91 421.0 35.5Q332 -20 189 -20Q111 -20 75.5 4.5Q40 29 38.5 79.5Q37 130 60 206L194 648Q212 707 209.0 732.5Q206 758 186 758Q167 758 142.5 741.0Q118 724 74 674Q68 668 64.5 665.0Q61 662 56 662Q52 662 53.0 666.5Q54 671 58 678Q119 782 215.5 849.0Q312 916 423 916Q487 916 525.0 889.0Q563 862 572.5 809.0Q582 756 558 678ZM426 992Q354 992 313.0 1028.5Q272 1065 272 1122Q272 1174 302.5 1223.0Q333 1272 387.5 1304.0Q442 1336 515 1336Q604 1336 643.5 1299.5Q683 1263 683 1207Q683 1148 653.5 1099.0Q624 1050 567.0 1021.0Q510 992 426 992Z"/>
    <path fill="#f2f2ee" transform="translate(14142 0)" d="M347 5Q388 5 417.0 42.0Q446 79 447 134Q448 171 433.5 200.5Q419 230 388.0 259.5Q357 289 309 324Q243 373 197.0 418.0Q151 463 129.5 510.0Q108 557 113 613Q121 694 174.0 765.5Q227 837 323.5 881.5Q420 926 557 926Q673 926 749.0 897.0Q825 868 863.5 822.5Q902 777 904 726Q906 667 877.0 631.0Q848 595 802 595Q744 595 706.0 636.5Q668 678 645 786Q631 852 606.0 877.0Q581 902 541 902Q499 902 472.5 867.0Q446 832 445 772Q444 731 460.5 694.5Q477 658 520.0 617.0Q563 576 641 518Q704 472 742.5 431.0Q781 390 796.0 347.5Q811 305 801 253Q787 175 725.5 113.5Q664 52 565.0 16.0Q466 -20 337 -20Q212 -20 134.5 11.5Q57 43 22.0 93.0Q-13 143 -13 198Q-13 250 12.5 286.0Q38 322 87 322Q150 322 184.0 277.5Q218 233 240 130Q254 61 277.5 33.0Q301 5 347 5Z"/>
  </g>
  <g transform="translate(80.00 251.63978754225013) scale(0.04619990342829551 -0.04619990342829551)">
    <path fill="#f2f2ee" transform="translate(0 0)" d="M697 1313 448 505 430 506Q477 661 542.5 750.5Q608 840 681.0 878.0Q754 916 823 916Q945 916 1008.5 835.5Q1072 755 1072 627Q1072 506 1030.0 390.5Q988 275 915.0 182.0Q842 89 747.5 34.5Q653 -20 548 -20Q471 -20 414.0 17.5Q357 55 357 158L381 124L13 -10Q9 -11 2.5 -13.5Q-4 -16 -9 -16Q-15 -16 -12.5 -5.0Q-10 6 -1 40L229 897Q277 1077 371.0 1205.0Q465 1333 604.0 1401.5Q743 1470 926 1470Q1066 1470 1139.5 1426.0Q1213 1382 1213 1316Q1213 1273 1183.5 1242.5Q1154 1212 1102 1212Q1052 1212 1009.5 1243.5Q967 1275 929.5 1317.0Q892 1359 855.5 1390.5Q819 1422 780 1422Q755 1422 735.0 1397.0Q715 1372 697 1313ZM639 786Q605 779 572.5 738.0Q540 697 510.5 631.5Q481 566 457.0 486.0Q433 406 416.0 321.0Q399 236 392 156Q387 98 409.5 65.0Q432 32 458 32Q491 32 525.0 78.0Q559 124 590.5 198.0Q622 272 646.5 359.0Q671 446 685.5 530.0Q700 614 700 677Q700 716 694.0 741.5Q688 767 674.5 779.0Q661 791 639 786Z"/>
    <path fill="#f2f2ee" transform="translate(1099 0)" d="M1116 234Q1121 234 1120.0 229.0Q1119 224 1114 218Q1053 114 950.0 47.0Q847 -20 737 -20Q670 -20 637.0 8.0Q604 36 604 90Q604 123 613.0 164.0Q622 205 634.5 246.5Q647 288 659.0 325.5Q671 363 677 388L685 386Q631 269 567.0 190.5Q503 112 437.0 66.0Q371 20 309.0 0.0Q247 -20 195 -20Q131 -20 93.0 7.0Q55 34 46.0 87.5Q37 141 60 218L189 654Q213 735 206.5 762.5Q200 790 179 790Q160 790 138.5 773.0Q117 756 86 714Q77 702 74.5 699.0Q72 696 68 696Q64 696 63.5 703.5Q63 711 70 726Q106 806 194.5 861.0Q283 916 425 916Q503 916 538.5 891.5Q574 867 575.5 817.0Q577 767 554 690L437 299Q412 217 419.0 188.0Q426 159 458 159Q479 159 507.5 178.5Q536 198 570.0 240.0Q604 282 639.0 348.0Q674 414 707 506Q723 551 733.5 597.0Q744 643 750.0 682.0Q756 721 756 744Q756 768 746.0 782.5Q736 797 736 818Q736 863 813.0 889.5Q890 916 1034 916Q1120 916 1136.5 886.0Q1153 856 1132 782L978 248Q961 189 963.5 163.5Q966 138 986 138Q1006 138 1030.5 155.5Q1055 173 1098 222Q1104 228 1108.0 231.0Q1112 234 1116 234Z"/>
    <path fill="#f2f2ee" transform="translate(2256 0)" d="M48 662Q45 662 45.0 665.5Q45 669 50 678Q91 748 151.0 801.5Q211 855 282.5 885.5Q354 916 427 916Q498 916 529.0 886.5Q560 857 560 810Q560 762 546.5 713.5Q533 665 513.5 615.0Q494 565 476.0 511.5Q458 458 448 400L434 405Q471 529 517.0 624.0Q563 719 616.0 784.0Q669 849 727.0 882.5Q785 916 846 916Q922 916 955.0 855.0Q988 794 974 708Q963 641 935.0 596.0Q907 551 866.5 528.0Q826 505 777 505Q724 505 691.5 530.5Q659 556 659 610Q659 635 664.5 659.0Q670 683 670 703Q670 722 663.5 731.5Q657 741 643 741Q621 741 591.0 704.5Q561 668 529.0 597.5Q497 527 469 424Q447 345 432.5 287.0Q418 229 418 198Q418 167 435.5 150.5Q453 134 470.5 124.5Q488 115 488 103Q488 85 439.5 55.5Q391 26 311.0 3.0Q231 -20 138 -20Q83 -20 57.0 -0.5Q31 19 28.0 54.0Q25 89 38 136L186 648Q203 707 200.5 732.5Q198 758 178 758Q159 758 134.5 741.0Q110 724 66 674Q60 667 56.0 664.5Q52 662 48 662Z"/>
    <path fill="#f2f2ee" transform="translate(3188 0)" d="M427 242Q403 161 409.5 133.5Q416 106 437 106Q457 106 478.0 123.0Q499 140 530 182Q539 194 541.5 197.0Q544 200 548 200Q553 200 553.0 192.5Q553 185 546 170Q510 91 421.0 35.5Q332 -20 189 -20Q111 -20 75.5 4.5Q40 29 38.5 79.5Q37 130 60 206L194 648Q212 707 209.0 732.5Q206 758 186 758Q167 758 142.5 741.0Q118 724 74 674Q68 668 64.5 665.0Q61 662 56 662Q52 662 53.0 666.5Q54 671 58 678Q119 782 215.5 849.0Q312 916 423 916Q487 916 525.0 889.0Q563 862 572.5 809.0Q582 756 558 678ZM426 992Q354 992 313.0 1028.5Q272 1065 272 1122Q272 1174 302.5 1223.0Q333 1272 387.5 1304.0Q442 1336 515 1336Q604 1336 643.5 1299.5Q683 1263 683 1207Q683 1148 653.5 1099.0Q624 1050 567.0 1021.0Q510 992 426 992Z"/>
    <path fill="#f2f2ee" transform="translate(3803 0)" d="M221 418Q221 418 252.0 426.5Q283 435 333.0 449.0Q383 463 440.5 479.5Q498 496 552.5 511.5Q607 527 646 538L612 513Q630 557 642.5 622.0Q655 687 656 770Q657 829 644.0 861.5Q631 894 604 894Q576 894 548.0 868.0Q520 842 495.0 791.5Q470 741 450.0 668.5Q430 596 418 503Q398 348 446.5 262.5Q495 177 622 177Q673 177 719.0 197.0Q765 217 805.5 258.0Q846 299 881 361Q886 368 890.0 370.5Q894 373 898 371Q903 370 904.0 364.0Q905 358 901 350Q847 230 770.5 147.5Q694 65 595.0 22.5Q496 -20 375 -20Q259 -20 178.0 27.5Q97 75 60.5 167.5Q24 260 40 394Q54 505 101.0 602.0Q148 699 223.0 771.5Q298 844 396.5 885.0Q495 926 611 926Q722 926 792.0 887.5Q862 849 894.0 787.0Q926 725 922 654Q921 641 926.5 632.0Q932 623 951 619Q959 618 961.0 615.5Q963 613 963 610Q963 608 961.0 605.0Q959 602 951 600Q931 595 871.0 578.5Q811 562 729.5 538.5Q648 515 561.0 490.5Q474 466 399.0 444.5Q324 423 277.5 409.5Q231 396 231 396Z"/>
    <path fill="#f2f2ee" transform="translate(4763 0)" d="M814 800 709 795Q720 836 714.5 863.0Q709 890 660 890Q619 890 578.0 845.0Q537 800 500.0 725.5Q463 651 434.0 561.0Q405 471 388.5 379.0Q372 287 372 208Q372 138 388.0 113.0Q404 88 426 88Q440 88 459.0 100.5Q478 113 499.0 141.5Q520 170 541.5 217.5Q563 265 582 335L814 1179Q858 1337 949.0 1403.5Q1040 1470 1175 1470Q1270 1470 1318.0 1434.0Q1366 1398 1366 1348Q1366 1305 1335.5 1276.0Q1305 1247 1252 1247Q1214 1247 1173.0 1264.0Q1132 1281 1092.0 1304.0Q1052 1327 1018.0 1344.0Q984 1361 960 1361Q940 1361 926.5 1347.0Q913 1333 913 1311Q913 1281 937.0 1252.5Q961 1224 993.5 1190.0Q1026 1156 1053.0 1108.5Q1080 1061 1089.0 994.0Q1098 927 1072 832L905 208Q892 157 895.0 131.5Q898 106 924 106Q944 106 965.0 123.0Q986 140 1017 182Q1026 194 1028.5 197.0Q1031 200 1035 200Q1040 200 1040.0 192.5Q1040 185 1033 170Q1009 117 962.0 74.0Q915 31 848.0 5.5Q781 -20 696 -20Q608 -20 572.5 14.0Q537 48 537 102Q537 123 539.0 144.5Q541 166 545.0 187.5Q549 209 553 228H577Q547 155 502.5 99.0Q458 43 396.0 11.5Q334 -20 251 -20Q173 -20 118.0 10.0Q63 40 34.0 96.5Q5 153 5 230Q5 349 51.5 470.0Q98 591 182.0 692.0Q266 793 379.5 854.5Q493 916 626 916Q695 916 736.0 902.0Q777 888 795.5 862.0Q814 836 814 800Z"/>
    <path fill="#f2f2ee" transform="translate(6153 0)" d="M427 242Q403 161 409.5 133.5Q416 106 437 106Q457 106 478.0 123.0Q499 140 530 182Q539 194 541.5 197.0Q544 200 548 200Q553 200 553.0 192.5Q553 185 546 170Q510 91 421.0 35.5Q332 -20 189 -20Q111 -20 75.5 4.5Q40 29 38.5 79.5Q37 130 60 206L194 648Q212 707 209.0 732.5Q206 758 186 758Q167 758 142.5 741.0Q118 724 74 674Q68 668 64.5 665.0Q61 662 56 662Q52 662 53.0 666.5Q54 671 58 678Q119 782 215.5 849.0Q312 916 423 916Q487 916 525.0 889.0Q563 862 572.5 809.0Q582 756 558 678ZM426 992Q354 992 313.0 1028.5Q272 1065 272 1122Q272 1174 302.5 1223.0Q333 1272 387.5 1304.0Q442 1336 515 1336Q604 1336 643.5 1299.5Q683 1263 683 1207Q683 1148 653.5 1099.0Q624 1050 567.0 1021.0Q510 992 426 992Z"/>
    <path fill="#f2f2ee" transform="translate(6768 0)" d="M48 662Q44 662 45.0 667.0Q46 672 50 678Q111 782 214.5 849.0Q318 916 427 916Q494 916 527.0 888.0Q560 860 560 806Q560 773 551.0 732.0Q542 691 529.5 649.5Q517 608 505.0 571.0Q493 534 487 508L479 510Q533 627 597.5 705.5Q662 784 728.5 830.0Q795 876 857.5 896.0Q920 916 972 916Q1037 916 1075.5 889.0Q1114 862 1123.0 809.0Q1132 756 1109 678L980 242Q956 161 962.5 133.5Q969 106 990 106Q1010 106 1031.0 123.0Q1052 140 1083 182Q1092 194 1094.5 197.0Q1097 200 1101 200Q1106 200 1106.0 192.5Q1106 185 1099 170Q1063 91 975.0 35.5Q887 -20 744 -20Q666 -20 630.5 4.5Q595 29 593.5 79.0Q592 129 615 206L732 597Q757 680 750.5 708.5Q744 737 709 737Q688 737 658.5 717.5Q629 698 595.0 656.0Q561 614 525.5 548.0Q490 482 457 390Q442 345 431.0 299.0Q420 253 414.0 214.0Q408 175 408 152Q408 128 418.0 113.5Q428 99 428 78Q428 33 351.0 6.5Q274 -20 130 -20Q45 -20 28.0 10.5Q11 41 32 114L186 648Q203 707 200.5 732.5Q198 758 178 758Q159 758 134.5 741.0Q110 724 66 674Q60 668 56.5 665.0Q53 662 48 662Z"/>
    <path fill="#f2f2ee" transform="translate(8230 0)" d="M906 242Q884 160 889.5 133.0Q895 106 916 106Q936 106 957.0 123.0Q978 140 1009 182Q1018 194 1020.5 197.0Q1023 200 1027 200Q1032 200 1032.0 192.5Q1032 185 1025 170Q989 91 902.5 35.5Q816 -20 688 -20Q605 -20 573.5 12.5Q542 45 542 102Q542 118 545.5 141.5Q549 165 554.5 191.0Q560 217 565.5 240.0Q571 263 574 278L586 274Q547 174 503.0 109.0Q459 44 399.5 12.0Q340 -20 254 -20Q138 -20 74.5 49.5Q11 119 11 240Q11 343 45.5 442.0Q80 541 144.0 626.5Q208 712 296.0 777.0Q384 842 491.0 879.0Q598 916 719 916Q820 916 910.0 901.5Q1000 887 1056.5 869.0Q1113 851 1113 840Q1113 828 1100.0 824.5Q1087 821 1073.0 816.5Q1059 812 1055 796ZM378 207Q378 137 391.5 112.5Q405 88 424 88Q448 88 472.0 114.5Q496 141 520.5 193.5Q545 246 570.5 322.0Q596 398 623.5 496.5Q651 595 682 715Q703 796 702.5 843.0Q702 890 660 890Q622 890 582.0 845.5Q542 801 505.5 727.0Q469 653 440.5 563.0Q412 473 395.0 380.5Q378 288 378 207Z"/>
    <path fill="#f2f2ee" transform="translate(9628 0)" d="M532 -20Q434 -20 373.0 3.0Q312 26 278.0 56.5Q244 87 229.0 110.0Q214 133 208 133Q201 133 172.5 114.0Q144 95 109.5 70.5Q75 46 47.0 27.0Q19 8 13 8Q7 8 5.0 12.5Q3 17 5 26L126 501Q129 513 131.5 518.0Q134 523 139 523Q144 523 146.0 519.0Q148 515 150 504L199 256Q221 144 285.0 84.0Q349 24 432 24Q478 24 513.5 40.0Q549 56 574.0 88.0Q599 120 612 168Q637 263 598.5 352.0Q560 441 437 526Q289 629 237.5 730.5Q186 832 199 965Q211 1092 291.5 1196.0Q372 1300 511.0 1362.0Q650 1424 835 1424Q987 1424 1076.5 1377.5Q1166 1331 1202.5 1257.5Q1239 1184 1233 1102Q1228 1022 1189.0 975.5Q1150 929 1087 929Q1042 929 1018.5 962.5Q995 996 983 1066L961 1193Q941 1310 904.0 1355.0Q867 1400 807 1400Q748 1400 700.5 1369.5Q653 1339 623.5 1289.0Q594 1239 586 1180Q571 1067 606.5 987.5Q642 908 750 820Q875 719 939.5 631.0Q1004 543 1021.0 460.5Q1038 378 1020 293Q1001 201 932.5 130.0Q864 59 761.0 19.5Q658 -20 532 -20Z"/>
    <path fill="#f2f2ee" transform="translate(10764 0)" d="M658 1470Q754 1470 802.5 1434.0Q851 1398 851 1348Q851 1305 820.5 1276.0Q790 1247 737 1247Q699 1247 658.0 1264.0Q617 1281 577.0 1304.0Q537 1327 503.0 1344.0Q469 1361 445 1361Q431 1361 420.5 1354.5Q410 1348 404.0 1336.5Q398 1325 398 1310Q398 1280 422.0 1252.0Q446 1224 478.5 1190.0Q511 1156 538.5 1108.5Q566 1061 575.0 994.5Q584 928 558 833L398 242Q376 160 381.5 133.0Q387 106 408 106Q428 106 449.0 123.0Q470 140 501 182Q510 194 512.5 197.0Q515 200 519 200Q524 200 524.0 192.5Q524 185 517 170Q493 117 445.0 74.0Q397 31 327.5 5.5Q258 -20 171 -20Q94 -20 57.5 6.5Q21 33 16.5 83.5Q12 134 32 206L299 1179Q343 1337 434.0 1403.5Q525 1470 658 1470Z"/>
    <path fill="#f2f2ee" transform="translate(11354 0)" d="M906 242Q884 160 889.5 133.0Q895 106 916 106Q936 106 957.0 123.0Q978 140 1009 182Q1018 194 1020.5 197.0Q1023 200 1027 200Q1032 200 1032.0 192.5Q1032 185 1025 170Q989 91 902.5 35.5Q816 -20 688 -20Q605 -20 573.5 12.5Q542 45 542 102Q542 118 545.5 141.5Q549 165 554.5 191.0Q560 217 565.5 240.0Q571 263 574 278L586 274Q547 174 503.0 109.0Q459 44 399.5 12.0Q340 -20 254 -20Q138 -20 74.5 49.5Q11 119 11 240Q11 343 45.5 442.0Q80 541 144.0 626.5Q208 712 296.0 777.0Q384 842 491.0 879.0Q598 916 719 916Q820 916 910.0 901.5Q1000 887 1056.5 869.0Q1113 851 1113 840Q1113 828 1100.0 824.5Q1087 821 1073.0 816.5Q1059 812 1055 796ZM378 207Q378 137 391.5 112.5Q405 88 424 88Q448 88 472.0 114.5Q496 141 520.5 193.5Q545 246 570.5 322.0Q596 398 623.5 496.5Q651 595 682 715Q703 796 702.5 843.0Q702 890 660 890Q622 890 582.0 845.5Q542 801 505.5 727.0Q469 653 440.5 563.0Q412 473 395.0 380.5Q378 288 378 207Z"/>
    <path fill="#f2f2ee" transform="translate(12452 0)" d="M618 893Q586 893 548.5 855.0Q511 817 479.5 743.5Q448 670 431 561Q400 363 450.0 270.0Q500 177 617 177Q669 177 714.0 196.0Q759 215 799.0 256.0Q839 297 873 361Q877 368 881.0 370.5Q885 373 889 371Q894 370 895.5 364.0Q897 358 893 350Q854 260 802.5 190.5Q751 121 687.0 74.5Q623 28 546.0 4.0Q469 -20 380 -20Q197 -20 103.0 100.0Q9 220 46 431Q64 535 113.5 625.0Q163 715 237.5 782.5Q312 850 407.0 888.0Q502 926 610 926Q729 926 806.0 892.0Q883 858 917.5 801.5Q952 745 942 677Q934 618 892.0 591.0Q850 564 801 564Q748 564 712.5 598.0Q677 632 681 692Q683 730 685.5 746.5Q688 763 688 804Q688 841 672.0 867.0Q656 893 618 893Z"/>
    <path fill="#f2f2ee" transform="translate(13412 0)" d="M478 551Q488 598 504.0 659.5Q520 721 544.5 807.5Q569 894 603.5 1015.5Q638 1137 684 1304Q695 1345 708.0 1371.0Q721 1397 737.0 1409.5Q753 1422 771 1422Q809 1422 845.5 1390.5Q882 1359 919.5 1317.0Q957 1275 999.5 1243.5Q1042 1212 1092 1212Q1144 1212 1173.5 1242.5Q1203 1273 1203 1316Q1203 1382 1129.5 1426.0Q1056 1470 917 1470Q732 1470 593.0 1401.0Q454 1332 360.5 1203.5Q267 1075 219 897L10 114Q-3 64 -1.0 34.5Q1 5 27.5 -7.5Q54 -20 114 -20Q212 -20 279.0 -8.0Q346 4 380.5 26.0Q415 48 415 78Q415 99 405.0 114.0Q395 129 395 152Q395 177 397.0 207.0Q399 237 405.0 275.5Q411 314 423 362Q451 470 489.0 552.5Q527 635 570.0 691.5Q613 748 656.0 777.0Q699 806 736 806Q765 806 783.5 776.5Q802 747 793 694Q777 599 727.5 532.0Q678 465 595.5 425.0Q513 385 398 371L401 350Q657 386 812.0 434.0Q967 482 1041.5 547.5Q1116 613 1128 701Q1144 811 1082.5 863.5Q1021 916 931 916Q856 916 787.0 889.5Q718 863 658.0 814.5Q598 766 550.0 699.5Q502 633 469 553ZM509 375 558 146Q576 61 624.5 20.5Q673 -20 749 -20Q822 -20 880.5 2.5Q939 25 986.5 75.0Q1034 125 1073 210Q1075 215 1074.0 218.5Q1073 222 1070 223Q1067 225 1063.5 223.5Q1060 222 1058 219Q1025 175 1006.0 159.5Q987 144 961 144Q937 144 919.0 162.0Q901 180 890 215L810 465Z"/>
    <path fill="#f2f2ee" transform="translate(14840 0)" d="M195 861 133 872Q126 874 123.5 877.5Q121 881 121 885Q121 890 125.0 893.0Q129 896 135 896H236Q244 896 250.0 898.0Q256 900 266 906L617 1114Q622 1117 628.0 1119.5Q634 1122 641 1122Q646 1122 648.5 1118.0Q651 1114 651 1108Q651 1105 650.0 1099.0Q649 1093 647 1084L416 242Q394 163 405.5 134.5Q417 106 443 106Q472 106 503.0 130.0Q534 154 570 206Q578 218 581.0 221.0Q584 224 588 224Q593 224 593.5 216.5Q594 209 586 194Q565 150 528.5 111.0Q492 72 442.5 42.5Q393 13 332.0 -3.5Q271 -20 200 -20Q123 -20 83.0 4.0Q43 28 36.0 78.5Q29 129 51 206L218 806Q225 832 219.5 845.0Q214 858 195 861ZM525 872 539 896H732Q747 896 747 885Q747 878 741.5 875.0Q736 872 727 872Z"/>
    <path fill="#f2f2ee" transform="translate(15494 0)" d="M431 390Q464 482 499.5 548.0Q535 614 569.0 656.0Q603 698 632.5 717.5Q662 737 683 737Q718 737 724.5 708.5Q731 680 706 597L589 206Q566 130 567.5 79.5Q569 29 604.5 4.5Q640 -20 717 -20Q861 -20 949.0 35.5Q1037 91 1073 170Q1080 185 1080.0 192.5Q1080 200 1075 200Q1071 200 1068.5 197.0Q1066 194 1057 182Q1026 140 1005.0 123.0Q984 106 964 106Q943 106 936.5 133.5Q930 161 954 242L1083 678Q1106 754 1097.5 807.0Q1089 860 1051.0 888.0Q1013 916 946 916Q877 916 789.5 879.5Q702 843 614.0 755.0Q526 667 453 510L461 508L686 1313Q697 1353 710.0 1377.0Q723 1401 738.0 1411.5Q753 1422 769 1422Q808 1422 844.5 1390.5Q881 1359 919.0 1317.0Q957 1275 999.0 1243.5Q1041 1212 1091 1212Q1142 1212 1172.0 1242.5Q1202 1273 1202 1316Q1202 1382 1128.5 1426.0Q1055 1470 916 1470Q733 1470 593.5 1401.5Q454 1333 360.0 1204.5Q266 1076 218 896L9 114Q-4 64 -2.0 34.5Q0 5 26.0 -7.5Q52 -20 112 -20Q259 -20 336.5 6.5Q414 33 414 78Q414 99 404.0 113.5Q394 128 394 152Q394 172 396.5 211.0Q399 250 407.0 297.5Q415 345 431 390Z"/>
    <path fill="#f2f2ee" transform="translate(16630 0)" d="M48 662Q45 662 45.0 665.5Q45 669 50 678Q91 748 151.0 801.5Q211 855 282.5 885.5Q354 916 427 916Q498 916 529.0 886.5Q560 857 560 810Q560 762 546.5 713.5Q533 665 513.5 615.0Q494 565 476.0 511.5Q458 458 448 400L434 405Q471 529 517.0 624.0Q563 719 616.0 784.0Q669 849 727.0 882.5Q785 916 846 916Q922 916 955.0 855.0Q988 794 974 708Q963 641 935.0 596.0Q907 551 866.5 528.0Q826 505 777 505Q724 505 691.5 530.5Q659 556 659 610Q659 635 664.5 659.0Q670 683 670 703Q670 722 663.5 731.5Q657 741 643 741Q621 741 591.0 704.5Q561 668 529.0 597.5Q497 527 469 424Q447 345 432.5 287.0Q418 229 418 198Q418 167 435.5 150.5Q453 134 470.5 124.5Q488 115 488 103Q488 85 439.5 55.5Q391 26 311.0 3.0Q231 -20 138 -20Q83 -20 57.0 -0.5Q31 19 28.0 54.0Q25 89 38 136L186 648Q203 707 200.5 732.5Q198 758 178 758Q159 758 134.5 741.0Q110 724 66 674Q60 667 56.0 664.5Q52 662 48 662Z"/>
    <path fill="#f2f2ee" transform="translate(17562 0)" d="M221 418Q221 418 252.0 426.5Q283 435 333.0 449.0Q383 463 440.5 479.5Q498 496 552.5 511.5Q607 527 646 538L612 513Q630 557 642.5 622.0Q655 687 656 770Q657 829 644.0 861.5Q631 894 604 894Q576 894 548.0 868.0Q520 842 495.0 791.5Q470 741 450.0 668.5Q430 596 418 503Q398 348 446.5 262.5Q495 177 622 177Q673 177 719.0 197.0Q765 217 805.5 258.0Q846 299 881 361Q886 368 890.0 370.5Q894 373 898 371Q903 370 904.0 364.0Q905 358 901 350Q847 230 770.5 147.5Q694 65 595.0 22.5Q496 -20 375 -20Q259 -20 178.0 27.5Q97 75 60.5 167.5Q24 260 40 394Q54 505 101.0 602.0Q148 699 223.0 771.5Q298 844 396.5 885.0Q495 926 611 926Q722 926 792.0 887.5Q862 849 894.0 787.0Q926 725 922 654Q921 641 926.5 632.0Q932 623 951 619Q959 618 961.0 615.5Q963 613 963 610Q963 608 961.0 605.0Q959 602 951 600Q931 595 871.0 578.5Q811 562 729.5 538.5Q648 515 561.0 490.5Q474 466 399.0 444.5Q324 423 277.5 409.5Q231 396 231 396Z"/>
    <path fill="#f2f2ee" transform="translate(18522 0)" d="M906 242Q884 160 889.5 133.0Q895 106 916 106Q936 106 957.0 123.0Q978 140 1009 182Q1018 194 1020.5 197.0Q1023 200 1027 200Q1032 200 1032.0 192.5Q1032 185 1025 170Q989 91 902.5 35.5Q816 -20 688 -20Q605 -20 573.5 12.5Q542 45 542 102Q542 118 545.5 141.5Q549 165 554.5 191.0Q560 217 565.5 240.0Q571 263 574 278L586 274Q547 174 503.0 109.0Q459 44 399.5 12.0Q340 -20 254 -20Q138 -20 74.5 49.5Q11 119 11 240Q11 343 45.5 442.0Q80 541 144.0 626.5Q208 712 296.0 777.0Q384 842 491.0 879.0Q598 916 719 916Q820 916 910.0 901.5Q1000 887 1056.5 869.0Q1113 851 1113 840Q1113 828 1100.0 824.5Q1087 821 1073.0 816.5Q1059 812 1055 796ZM378 207Q378 137 391.5 112.5Q405 88 424 88Q448 88 472.0 114.5Q496 141 520.5 193.5Q545 246 570.5 322.0Q596 398 623.5 496.5Q651 595 682 715Q703 796 702.5 843.0Q702 890 660 890Q622 890 582.0 845.5Q542 801 505.5 727.0Q469 653 440.5 563.0Q412 473 395.0 380.5Q378 288 378 207Z"/>
    <path fill="#f2f2ee" transform="translate(19620 0)" d="M814 800 709 795Q720 836 714.5 863.0Q709 890 660 890Q619 890 578.0 845.0Q537 800 500.0 725.5Q463 651 434.0 561.0Q405 471 388.5 379.0Q372 287 372 208Q372 138 388.0 113.0Q404 88 426 88Q440 88 459.0 100.5Q478 113 499.0 141.5Q520 170 541.5 217.5Q563 265 582 335L814 1179Q858 1337 949.0 1403.5Q1040 1470 1175 1470Q1270 1470 1318.0 1434.0Q1366 1398 1366 1348Q1366 1305 1335.5 1276.0Q1305 1247 1252 1247Q1214 1247 1173.0 1264.0Q1132 1281 1092.0 1304.0Q1052 1327 1018.0 1344.0Q984 1361 960 1361Q940 1361 926.5 1347.0Q913 1333 913 1311Q913 1281 937.0 1252.5Q961 1224 993.5 1190.0Q1026 1156 1053.0 1108.5Q1080 1061 1089.0 994.0Q1098 927 1072 832L905 208Q892 157 895.0 131.5Q898 106 924 106Q944 106 965.0 123.0Q986 140 1017 182Q1026 194 1028.5 197.0Q1031 200 1035 200Q1040 200 1040.0 192.5Q1040 185 1033 170Q1009 117 962.0 74.0Q915 31 848.0 5.5Q781 -20 696 -20Q608 -20 572.5 14.0Q537 48 537 102Q537 123 539.0 144.5Q541 166 545.0 187.5Q549 209 553 228H577Q547 155 502.5 99.0Q458 43 396.0 11.5Q334 -20 251 -20Q173 -20 118.0 10.0Q63 40 34.0 96.5Q5 153 5 230Q5 349 51.5 470.0Q98 591 182.0 692.0Q266 793 379.5 854.5Q493 916 626 916Q695 916 736.0 902.0Q777 888 795.5 862.0Q814 836 814 800Z"/>
  </g>
  <g transform="translate(80.00 353.27957508450027) scale(0.04619990342829551 -0.04619990342829551)">
    <path fill="#b4ff39" transform="translate(0 0)" d="M445 872 455 896H702Q710 896 713.5 893.0Q717 890 717 885Q717 881 714.5 878.0Q712 875 707.5 873.5Q703 872 697 872ZM128 884Q128 889 131.5 892.5Q135 896 144 896H248L325 1179Q368 1336 452.0 1403.0Q536 1470 663 1470Q743 1470 783.5 1433.0Q824 1396 824 1348Q824 1297 785.5 1262.0Q747 1227 682 1227Q637 1227 604.0 1247.0Q571 1267 546.0 1294.0Q521 1321 500.0 1341.0Q479 1361 459 1361Q443 1361 433.0 1350.5Q423 1340 420 1321Q414 1279 444.5 1227.0Q475 1175 515.5 1116.5Q556 1058 582.0 997.5Q608 937 592 878L329 -121Q321 -152 317.5 -172.0Q314 -192 314 -208Q314 -239 331.5 -255.5Q349 -272 366.5 -281.5Q384 -291 384 -303Q384 -321 335.0 -350.5Q286 -380 206.5 -403.0Q127 -426 35 -426Q-45 -426 -64.5 -384.5Q-84 -343 -56 -239L203 726Q226 814 211.5 843.0Q197 872 144 872Q135 872 131.5 875.5Q128 879 128 884Z"/>
    <path fill="#b4ff39" transform="translate(610 0)" d="M48 662Q45 662 45.0 665.5Q45 669 50 678Q91 748 151.0 801.5Q211 855 282.5 885.5Q354 916 427 916Q498 916 529.0 886.5Q560 857 560 810Q560 762 546.5 713.5Q533 665 513.5 615.0Q494 565 476.0 511.5Q458 458 448 400L434 405Q471 529 517.0 624.0Q563 719 616.0 784.0Q669 849 727.0 882.5Q785 916 846 916Q922 916 955.0 855.0Q988 794 974 708Q963 641 935.0 596.0Q907 551 866.5 528.0Q826 505 777 505Q724 505 691.5 530.5Q659 556 659 610Q659 635 664.5 659.0Q670 683 670 703Q670 722 663.5 731.5Q657 741 643 741Q621 741 591.0 704.5Q561 668 529.0 597.5Q497 527 469 424Q447 345 432.5 287.0Q418 229 418 198Q418 167 435.5 150.5Q453 134 470.5 124.5Q488 115 488 103Q488 85 439.5 55.5Q391 26 311.0 3.0Q231 -20 138 -20Q83 -20 57.0 -0.5Q31 19 28.0 54.0Q25 89 38 136L186 648Q203 707 200.5 732.5Q198 758 178 758Q159 758 134.5 741.0Q110 724 66 674Q60 667 56.0 664.5Q52 662 48 662Z"/>
    <path fill="#b4ff39" transform="translate(1542 0)" d="M610 926Q743 926 839.5 874.0Q936 822 985.0 727.5Q1034 633 1021 507Q1010 398 967.0 302.5Q924 207 849.5 134.5Q775 62 669.5 21.0Q564 -20 428 -20Q304 -20 209.5 32.0Q115 84 66.5 178.5Q18 273 30 398Q42 511 86.0 607.0Q130 703 204.5 774.5Q279 846 381.0 886.0Q483 926 610 926ZM428 17Q459 17 493.5 70.5Q528 124 561.0 211.0Q594 298 621.0 400.5Q648 503 665.0 603.5Q682 704 683 783Q684 826 676.0 849.0Q668 872 654.5 880.5Q641 889 623 889Q591 889 556.5 835.5Q522 782 489.0 695.0Q456 608 429.0 505.5Q402 403 386.0 302.5Q370 202 368 123Q368 80 375.0 57.0Q382 34 396.0 25.5Q410 17 428 17Z"/>
    <path fill="#b4ff39" transform="translate(2592 0)" d="M584 114 721 597Q744 680 738.0 708.5Q732 737 700 737Q673 737 632.5 701.5Q592 666 546.5 589.5Q501 513 457 390Q441 345 430.0 299.0Q419 253 413.5 214.0Q408 175 408 152Q408 128 418.0 113.5Q428 99 428 78Q428 33 351.0 6.5Q274 -20 130 -20Q45 -20 28.0 10.5Q11 41 32 114L186 648Q203 707 200.5 732.5Q198 758 178 758Q159 758 134.5 741.0Q110 724 66 674Q60 668 56.5 665.0Q53 662 48 662Q44 662 45.0 666.5Q46 671 50 678Q111 782 214.5 849.0Q318 916 427 916Q494 916 527.0 888.0Q560 860 560 806Q560 773 551.0 732.0Q542 691 529.5 649.5Q517 608 505.0 571.0Q493 534 487 508L479 510Q552 667 639.0 755.0Q726 843 813.5 879.5Q901 916 974 916Q1041 916 1075.0 889.0Q1109 862 1109 798Q1109 773 1100.0 735.0Q1091 697 1078.0 655.5Q1065 614 1051.5 575.5Q1038 537 1028 510L1020 514Q1076 618 1135.5 693.5Q1195 769 1258.0 818.5Q1321 868 1385.0 892.0Q1449 916 1513 916Q1577 916 1614.5 889.0Q1652 862 1660.5 809.0Q1669 756 1647 678L1524 242Q1501 161 1507.0 133.5Q1513 106 1534 106Q1554 106 1575.0 123.0Q1596 140 1627 182Q1636 194 1638.5 197.0Q1641 200 1645 200Q1650 200 1650.0 192.5Q1650 185 1643 170Q1607 91 1519.0 35.5Q1431 -20 1288 -20Q1210 -20 1175.5 4.5Q1141 29 1139.5 79.5Q1138 130 1159 206L1270 597Q1293 680 1287.0 708.5Q1281 737 1249 737Q1222 737 1181.5 701.5Q1141 666 1095.5 589.5Q1050 513 1006 389Q990 345 980.0 299.0Q970 253 965.0 214.0Q960 175 960 152Q960 128 970.0 113.5Q980 99 980 78Q980 33 903.0 6.5Q826 -20 683 -20Q626 -20 600.0 -7.0Q574 6 572.0 35.5Q570 65 584 114Z"/>
    <path fill="#b4ff39" transform="translate(4596 0)" d="M911 561 861 514 1355 1316Q1390 1372 1414.0 1386.0Q1438 1400 1477 1400H1894Q1901 1400 1903.5 1398.0Q1906 1396 1906 1393Q1906 1390 1903.5 1387.0Q1901 1384 1893 1383L1804 1372Q1789 1371 1777.5 1357.5Q1766 1344 1761 1324Q1757 1309 1740.5 1237.0Q1724 1165 1699.5 1056.0Q1675 947 1646.5 820.0Q1618 693 1590.0 566.0Q1562 439 1537.5 330.5Q1513 222 1497.0 150.5Q1481 79 1478 64Q1475 52 1481.5 41.5Q1488 31 1509 29L1592 19Q1602 18 1606.0 15.5Q1610 13 1610 9Q1610 5 1606.0 2.5Q1602 0 1594 0H936Q930 0 927.0 2.0Q924 4 924 8Q924 12 927.0 14.0Q930 16 937 17L1016 28Q1034 30 1045.0 43.5Q1056 57 1060 76Q1083 172 1105.0 266.5Q1127 361 1149.5 456.5Q1172 552 1194.5 649.0Q1217 746 1240.0 846.5Q1263 947 1287.0 1052.0Q1311 1157 1336 1267L1349 1260L624 84Q612 65 603.5 54.0Q595 43 584 43Q574 43 569.0 56.5Q564 70 562 92Q553 167 543.5 247.0Q534 327 524.0 414.0Q514 501 502.5 596.5Q491 692 478.5 798.0Q466 904 452.0 1021.5Q438 1139 422 1270L445 1281L166 272Q135 162 164.0 103.0Q193 44 269 24L292 18Q305 15 305 8Q305 4 301.5 2.0Q298 0 291 0H-105Q-111 0 -114.0 1.5Q-117 3 -117 7Q-117 10 -114.5 12.5Q-112 15 -105 17L-87 22Q-47 33 -2.5 61.0Q42 89 80.5 141.0Q119 193 142 276L431 1324Q436 1344 428.5 1356.5Q421 1369 398 1372L324 1382Q316 1383 313.5 1385.5Q311 1388 311 1392Q311 1396 314.5 1398.0Q318 1400 325 1400H758Q776 1400 792.5 1396.0Q809 1392 812 1368Q820 1307 827.0 1246.5Q834 1186 841.5 1125.0Q849 1064 857.0 1000.5Q865 937 873.5 868.0Q882 799 891.5 723.0Q901 647 911 561Z"/>
    <path fill="#b4ff39" transform="translate(6342 0)" d="M906 242Q884 160 889.5 133.0Q895 106 916 106Q936 106 957.0 123.0Q978 140 1009 182Q1018 194 1020.5 197.0Q1023 200 1027 200Q1032 200 1032.0 192.5Q1032 185 1025 170Q989 91 902.5 35.5Q816 -20 688 -20Q605 -20 573.5 12.5Q542 45 542 102Q542 118 545.5 141.5Q549 165 554.5 191.0Q560 217 565.5 240.0Q571 263 574 278L586 274Q547 174 503.0 109.0Q459 44 399.5 12.0Q340 -20 254 -20Q138 -20 74.5 49.5Q11 119 11 240Q11 343 45.5 442.0Q80 541 144.0 626.5Q208 712 296.0 777.0Q384 842 491.0 879.0Q598 916 719 916Q820 916 910.0 901.5Q1000 887 1056.5 869.0Q1113 851 1113 840Q1113 828 1100.0 824.5Q1087 821 1073.0 816.5Q1059 812 1055 796ZM378 207Q378 137 391.5 112.5Q405 88 424 88Q448 88 472.0 114.5Q496 141 520.5 193.5Q545 246 570.5 322.0Q596 398 623.5 496.5Q651 595 682 715Q703 796 702.5 843.0Q702 890 660 890Q622 890 582.0 845.5Q542 801 505.5 727.0Q469 653 440.5 563.0Q412 473 395.0 380.5Q378 288 378 207Z"/>
    <path fill="#b4ff39" transform="translate(7440 0)" d="M48 662Q45 662 45.0 665.5Q45 669 50 678Q91 748 151.0 801.5Q211 855 282.5 885.5Q354 916 427 916Q498 916 529.0 886.5Q560 857 560 810Q560 762 546.5 713.5Q533 665 513.5 615.0Q494 565 476.0 511.5Q458 458 448 400L434 405Q471 529 517.0 624.0Q563 719 616.0 784.0Q669 849 727.0 882.5Q785 916 846 916Q922 916 955.0 855.0Q988 794 974 708Q963 641 935.0 596.0Q907 551 866.5 528.0Q826 505 777 505Q724 505 691.5 530.5Q659 556 659 610Q659 635 664.5 659.0Q670 683 670 703Q670 722 663.5 731.5Q657 741 643 741Q621 741 591.0 704.5Q561 668 529.0 597.5Q497 527 469 424Q447 345 432.5 287.0Q418 229 418 198Q418 167 435.5 150.5Q453 134 470.5 124.5Q488 115 488 103Q488 85 439.5 55.5Q391 26 311.0 3.0Q231 -20 138 -20Q83 -20 57.0 -0.5Q31 19 28.0 54.0Q25 89 38 136L186 648Q203 707 200.5 732.5Q198 758 178 758Q159 758 134.5 741.0Q110 724 66 674Q60 667 56.0 664.5Q52 662 48 662Z"/>
    <path fill="#b4ff39" transform="translate(8372 0)" d="M618 893Q586 893 548.5 855.0Q511 817 479.5 743.5Q448 670 431 561Q400 363 450.0 270.0Q500 177 617 177Q669 177 714.0 196.0Q759 215 799.0 256.0Q839 297 873 361Q877 368 881.0 370.5Q885 373 889 371Q894 370 895.5 364.0Q897 358 893 350Q854 260 802.5 190.5Q751 121 687.0 74.5Q623 28 546.0 4.0Q469 -20 380 -20Q197 -20 103.0 100.0Q9 220 46 431Q64 535 113.5 625.0Q163 715 237.5 782.5Q312 850 407.0 888.0Q502 926 610 926Q729 926 806.0 892.0Q883 858 917.5 801.5Q952 745 942 677Q934 618 892.0 591.0Q850 564 801 564Q748 564 712.5 598.0Q677 632 681 692Q683 730 685.5 746.5Q688 763 688 804Q688 841 672.0 867.0Q656 893 618 893Z"/>
    <path fill="#b4ff39" transform="translate(9332 0)" d="M431 390Q464 482 499.5 548.0Q535 614 569.0 656.0Q603 698 632.5 717.5Q662 737 683 737Q718 737 724.5 708.5Q731 680 706 597L589 206Q566 130 567.5 79.5Q569 29 604.5 4.5Q640 -20 717 -20Q861 -20 949.0 35.5Q1037 91 1073 170Q1080 185 1080.0 192.5Q1080 200 1075 200Q1071 200 1068.5 197.0Q1066 194 1057 182Q1026 140 1005.0 123.0Q984 106 964 106Q943 106 936.5 133.5Q930 161 954 242L1083 678Q1106 754 1097.5 807.0Q1089 860 1051.0 888.0Q1013 916 946 916Q877 916 789.5 879.5Q702 843 614.0 755.0Q526 667 453 510L461 508L686 1313Q697 1353 710.0 1377.0Q723 1401 738.0 1411.5Q753 1422 769 1422Q808 1422 844.5 1390.5Q881 1359 919.0 1317.0Q957 1275 999.0 1243.5Q1041 1212 1091 1212Q1142 1212 1172.0 1242.5Q1202 1273 1202 1316Q1202 1382 1128.5 1426.0Q1055 1470 916 1470Q733 1470 593.5 1401.5Q454 1333 360.0 1204.5Q266 1076 218 896L9 114Q-4 64 -2.0 34.5Q0 5 26.0 -7.5Q52 -20 112 -20Q259 -20 336.5 6.5Q414 33 414 78Q414 99 404.0 113.5Q394 128 394 152Q394 172 396.5 211.0Q399 250 407.0 297.5Q415 345 431 390Z"/>
    <path fill="#b4ff39" transform="translate(10468 0)" d="M184 -20Q107 -20 63.5 21.0Q20 62 20 126Q20 186 52.5 236.0Q85 286 144.5 316.0Q204 346 283 346Q365 346 408.0 304.0Q451 262 451 199Q451 145 420.5 94.5Q390 44 331.0 12.0Q272 -20 184 -20Z"/>
  </g>
  <g transform="translate(979.9 570)">
    <circle cx="0" cy="0" r="22" fill="none" stroke="#b4ff39" stroke-width="1.2" opacity="0.55"/>
    <circle cx="0" cy="0" r="14.5" fill="none" stroke="#b4ff39" stroke-width="1.6"/>
    <circle cx="0" cy="0" r="4.5" fill="#b4ff39"/>
  </g>
  <g transform="translate(993.9 578) scale(0.02 -0.02)">
    <path fill="#f2f2ee" transform="translate(0 0)" d="M1444 957Q1431 847 1377.5 757.5Q1324 668 1236.5 604.0Q1149 540 1032.0 506.0Q915 472 773 472Q674 472 628.0 487.0Q582 502 545 519L551 540Q600 516 640.5 510.5Q681 505 713 505Q793 505 861.5 553.5Q930 602 982.5 705.5Q1035 809 1067 975Q1095 1121 1082.0 1209.0Q1069 1297 1031.5 1336.5Q994 1376 947 1376Q904 1376 876.5 1354.5Q849 1333 834 1288Q830 1276 811.5 1206.5Q793 1137 765.0 1030.5Q737 924 704.0 799.5Q671 675 639.0 550.5Q607 426 579.5 320.0Q552 214 534.5 145.0Q517 76 514 64Q511 54 516.0 44.5Q521 35 536 33L678 20Q687 19 691.5 16.5Q696 14 696 10Q696 5 692.0 2.5Q688 0 680 0H-28Q-34 0 -37.0 1.5Q-40 3 -40 7Q-40 11 -37.0 13.5Q-34 16 -27 17L52 28Q70 30 80.0 43.5Q90 57 96 76Q99 87 118.0 158.0Q137 229 166.5 338.5Q196 448 231.0 577.0Q266 706 300.5 834.5Q335 963 364.0 1071.5Q393 1180 411.0 1248.5Q429 1317 431 1325Q436 1347 428.5 1358.0Q421 1369 398 1372L324 1382Q316 1383 313.5 1385.5Q311 1388 311 1392Q311 1396 314.5 1398.0Q318 1400 325 1400H1023Q1128 1400 1211.0 1368.0Q1294 1336 1350.0 1277.0Q1406 1218 1431.0 1136.5Q1456 1055 1444 957Z"/>
    <path fill="#f2f2ee" transform="translate(1370 0)" d="M1116 234Q1121 234 1120.0 229.0Q1119 224 1114 218Q1053 114 950.0 47.0Q847 -20 737 -20Q670 -20 637.0 8.0Q604 36 604 90Q604 123 613.0 164.0Q622 205 634.5 246.5Q647 288 659.0 325.5Q671 363 677 388L685 386Q631 269 567.0 190.5Q503 112 437.0 66.0Q371 20 309.0 0.0Q247 -20 195 -20Q131 -20 93.0 7.0Q55 34 46.0 87.5Q37 141 60 218L189 654Q213 735 206.5 762.5Q200 790 179 790Q160 790 138.5 773.0Q117 756 86 714Q77 702 74.5 699.0Q72 696 68 696Q64 696 63.5 703.5Q63 711 70 726Q106 806 194.5 861.0Q283 916 425 916Q503 916 538.5 891.5Q574 867 575.5 817.0Q577 767 554 690L437 299Q412 217 419.0 188.0Q426 159 458 159Q479 159 507.5 178.5Q536 198 570.0 240.0Q604 282 639.0 348.0Q674 414 707 506Q723 551 733.5 597.0Q744 643 750.0 682.0Q756 721 756 744Q756 768 746.0 782.5Q736 797 736 818Q736 863 813.0 889.5Q890 916 1034 916Q1120 916 1136.5 886.0Q1153 856 1132 782L978 248Q961 189 963.5 163.5Q966 138 986 138Q1006 138 1030.5 155.5Q1055 173 1098 222Q1104 228 1108.0 231.0Q1112 234 1116 234Z"/>
    <path fill="#f2f2ee" transform="translate(2527 0)" d="M658 1470Q754 1470 802.5 1434.0Q851 1398 851 1348Q851 1305 820.5 1276.0Q790 1247 737 1247Q699 1247 658.0 1264.0Q617 1281 577.0 1304.0Q537 1327 503.0 1344.0Q469 1361 445 1361Q431 1361 420.5 1354.5Q410 1348 404.0 1336.5Q398 1325 398 1310Q398 1280 422.0 1252.0Q446 1224 478.5 1190.0Q511 1156 538.5 1108.5Q566 1061 575.0 994.5Q584 928 558 833L398 242Q376 160 381.5 133.0Q387 106 408 106Q428 106 449.0 123.0Q470 140 501 182Q510 194 512.5 197.0Q515 200 519 200Q524 200 524.0 192.5Q524 185 517 170Q493 117 445.0 74.0Q397 31 327.5 5.5Q258 -20 171 -20Q94 -20 57.5 6.5Q21 33 16.5 83.5Q12 134 32 206L299 1179Q343 1337 434.0 1403.5Q525 1470 658 1470Z"/>
    <path fill="#f2f2ee" transform="translate(3117 0)" d="M347 5Q388 5 417.0 42.0Q446 79 447 134Q448 171 433.5 200.5Q419 230 388.0 259.5Q357 289 309 324Q243 373 197.0 418.0Q151 463 129.5 510.0Q108 557 113 613Q121 694 174.0 765.5Q227 837 323.5 881.5Q420 926 557 926Q673 926 749.0 897.0Q825 868 863.5 822.5Q902 777 904 726Q906 667 877.0 631.0Q848 595 802 595Q744 595 706.0 636.5Q668 678 645 786Q631 852 606.0 877.0Q581 902 541 902Q499 902 472.5 867.0Q446 832 445 772Q444 731 460.5 694.5Q477 658 520.0 617.0Q563 576 641 518Q704 472 742.5 431.0Q781 390 796.0 347.5Q811 305 801 253Q787 175 725.5 113.5Q664 52 565.0 16.0Q466 -20 337 -20Q212 -20 134.5 11.5Q57 43 22.0 93.0Q-13 143 -13 198Q-13 250 12.5 286.0Q38 322 87 322Q150 322 184.0 277.5Q218 233 240 130Q254 61 277.5 33.0Q301 5 347 5Z"/>
    <path fill="#f2f2ee" transform="translate(4013 0)" d="M221 418Q221 418 252.0 426.5Q283 435 333.0 449.0Q383 463 440.5 479.5Q498 496 552.5 511.5Q607 527 646 538L612 513Q630 557 642.5 622.0Q655 687 656 770Q657 829 644.0 861.5Q631 894 604 894Q576 894 548.0 868.0Q520 842 495.0 791.5Q470 741 450.0 668.5Q430 596 418 503Q398 348 446.5 262.5Q495 177 622 177Q673 177 719.0 197.0Q765 217 805.5 258.0Q846 299 881 361Q886 368 890.0 370.5Q894 373 898 371Q903 370 904.0 364.0Q905 358 901 350Q847 230 770.5 147.5Q694 65 595.0 22.5Q496 -20 375 -20Q259 -20 178.0 27.5Q97 75 60.5 167.5Q24 260 40 394Q54 505 101.0 602.0Q148 699 223.0 771.5Q298 844 396.5 885.0Q495 926 611 926Q722 926 792.0 887.5Q862 849 894.0 787.0Q926 725 922 654Q921 641 926.5 632.0Q932 623 951 619Q959 618 961.0 615.5Q963 613 963 610Q963 608 961.0 605.0Q959 602 951 600Q931 595 871.0 578.5Q811 562 729.5 538.5Q648 515 561.0 490.5Q474 466 399.0 444.5Q324 423 277.5 409.5Q231 396 231 396Z"/>
  </g>
  <g transform="translate(1099.36 578) scale(0.02 -0.02)">
    <path fill="#b4ff39" transform="translate(0 0)" d="M514 64Q511 52 517.5 42.0Q524 32 545 29L618 19Q628 18 632.0 15.5Q636 13 636 9Q636 5 632.0 2.5Q628 0 620 0H-28Q-34 0 -37.0 1.5Q-40 3 -40 7Q-40 11 -37.0 13.5Q-34 16 -27 17L52 28Q68 30 78.5 42.0Q89 54 96 76Q99 87 118.0 158.0Q137 229 167.0 339.0Q197 449 231.5 578.5Q266 708 300.5 837.0Q335 966 364.5 1074.5Q394 1183 412.0 1252.0Q430 1321 432 1328Q435 1348 428.0 1358.5Q421 1369 398 1372L324 1382Q316 1383 313.5 1385.5Q311 1388 311 1392Q311 1396 314.5 1398.0Q318 1400 325 1400H965Q972 1400 974.5 1398.0Q977 1396 977 1393Q977 1390 974.5 1387.0Q972 1384 964 1383L885 1372Q870 1370 861.0 1360.0Q852 1350 842 1324Q840 1318 821.5 1249.5Q803 1181 774.5 1072.5Q746 964 712.5 834.5Q679 705 645.0 574.5Q611 444 582.5 332.5Q554 221 535.5 148.5Q517 76 514 64ZM492 668H1206L1202 644H488ZM1288 64Q1285 52 1291.5 42.0Q1298 32 1319 29L1392 19Q1402 18 1406.0 15.5Q1410 13 1410 9Q1410 5 1406.0 2.5Q1402 0 1394 0H746Q740 0 737.0 1.5Q734 3 734 7Q734 11 737.0 13.5Q740 16 747 17L826 28Q842 30 852.5 42.0Q863 54 870 76Q873 87 892.0 158.0Q911 229 941.0 339.0Q971 449 1005.5 578.5Q1040 708 1074.5 837.0Q1109 966 1138.5 1074.5Q1168 1183 1186.0 1252.0Q1204 1321 1206 1328Q1209 1348 1202.0 1358.5Q1195 1369 1172 1372L1098 1382Q1090 1383 1087.5 1385.5Q1085 1388 1085 1392Q1085 1396 1088.5 1398.0Q1092 1400 1099 1400H1739Q1746 1400 1748.5 1398.0Q1751 1396 1751 1393Q1751 1390 1748.5 1387.0Q1746 1384 1738 1383L1659 1372Q1644 1370 1635.0 1360.0Q1626 1350 1616 1324Q1614 1318 1595.5 1249.5Q1577 1181 1548.5 1072.5Q1520 964 1486.5 834.5Q1453 705 1419.0 574.5Q1385 444 1356.5 332.5Q1328 221 1309.5 148.5Q1291 76 1288 64Z"/>
    <path fill="#b4ff39" transform="translate(1592 0)" d="M550 606 556 627Q611 600 656.5 592.5Q702 585 738 585Q814 585 880.0 629.0Q946 673 996.0 768.0Q1046 863 1072 1015Q1095 1147 1082.0 1226.0Q1069 1305 1032.5 1340.5Q996 1376 947 1376Q904 1376 876.5 1354.5Q849 1333 834 1288Q830 1276 811.5 1206.5Q793 1137 765.0 1030.5Q737 924 704.0 799.5Q671 675 639.0 550.5Q607 426 579.5 320.0Q552 214 534.5 145.0Q517 76 514 64Q511 52 517.5 42.0Q524 32 545 29L618 19Q628 18 632.0 15.5Q636 13 636 9Q636 5 632.0 2.5Q628 0 620 0H-28Q-34 0 -37.0 1.5Q-40 3 -40 7Q-40 11 -37.0 13.5Q-34 16 -27 17L52 28Q70 30 80.0 43.5Q90 57 96 76Q99 87 118.0 158.0Q137 229 166.5 338.5Q196 448 231.0 577.0Q266 706 300.5 834.5Q335 963 364.0 1071.5Q393 1180 411.0 1248.5Q429 1317 431 1325Q436 1347 428.5 1358.0Q421 1369 398 1372L324 1382Q316 1383 313.5 1385.5Q311 1388 311 1392Q311 1396 314.5 1398.0Q318 1400 325 1400H1023Q1164 1400 1265.0 1349.0Q1366 1298 1415.0 1207.5Q1464 1117 1449 997Q1433 862 1346.5 762.0Q1260 662 1117.0 607.0Q974 552 788 552Q685 552 637.0 570.0Q589 588 550 606ZM730 558 1102 614 1238 212Q1246 188 1257.0 173.0Q1268 158 1281.5 151.0Q1295 144 1309 144Q1332 144 1354.0 159.0Q1376 174 1400 213Q1404 219 1407.0 221.5Q1410 224 1413 222Q1416 221 1415.5 218.0Q1415 215 1413 210Q1355 94 1253.0 32.0Q1151 -30 1031 -30Q977 -30 937.5 -13.5Q898 3 872.5 36.0Q847 69 835 118Z"/>
  </g>
</svg>
